<?xml version="1.0" encoding="utf-8"?>
<!-- Generator: Adobe Illustrator 27.0.1, SVG Export Plug-In . SVG Version: 6.00 Build 0)  -->
<svg version="1.1" id="Capa_1" xmlns="http://www.w3.org/2000/svg" xmlns:xlink="http://www.w3.org/1999/xlink" x="0px" y="0px"
	 viewBox="0 0 500 278" style="enable-background:new 0 0 500 278;" xml:space="preserve">
<style type="text/css">
	.st0{fill:#4998DA;}
	.st1{fill:#14355F;}
	.st2{fill:url(#SVGID_1_);}
	.st3{fill:url(#SVGID_00000117668068731000369380000011327339634783037580_);}
	.st4{fill:url(#SVGID_00000012460012064712185980000000921330574936001938_);}
	.st5{fill:url(#SVGID_00000010279576600085829910000000334318478997480586_);}
	.st6{fill:url(#SVGID_00000118359153849389043720000002020251328603441842_);}
	.st7{fill:url(#SVGID_00000001648634080204705730000006049234808178149769_);}
	.st8{fill:url(#SVGID_00000051380604763764203240000014515359297820950418_);}
	.st9{fill:url(#SVGID_00000081627989382831884890000007125403132438506923_);}
	.st10{fill:url(#SVGID_00000174601065807254386760000002239338005565802375_);}
</style>
<g>
	<g>
		<path class="st0" d="M190.6,95.3C190.6,42.7,148,0,95.3,0C42.7,0,0,42.7,0,95.3c0,50.6,39.4,91.9,89.1,95.1v-50.1
			c-22.1-3-39.3-22-39.3-45c0-25.1,20.3-45.4,45.4-45.4c25.1,0,45.4,20.3,45.4,45.4c0,9.3-2.8,18-7.6,25.2h5.4v10.1h9.7v10.1h10.5
			v9.7h8.9v6.9C182,140.7,190.6,119,190.6,95.3z"/>
		<path class="st1" d="M184.7,180.6h-9.9v-10.3h-10.3v-9.5h-8.7v-9.5h-10.3v-9.5h-9.5v-9.9H126v-9.9h-8.7v-9.5h-9.5v-9.9H96.1V239
			h10.4v-10.3h9.5v-9.9h10.4v-9.9h8.7v9.9h10V239h10.3v18.6h19.4V278h19.3v-20.4h-19.3v-19.1h-9.5v-18.2h-9.9v-20.3h38.7V191h-9.3
			V180.6z"/>
	</g>
	<g>
		<linearGradient id="SVGID_1_" gradientUnits="userSpaceOnUse" x1="213.9111" y1="150.1935" x2="493.3798" y2="150.1935">
			<stop  offset="0.1877" style="stop-color:#0088CA"/>
			<stop  offset="0.5359" style="stop-color:#006199"/>
			<stop  offset="0.9101" style="stop-color:#00345F"/>
		</linearGradient>
		<path class="st2" d="M214.4,110.3h14.1l28,62.5l27.9-62.5h14v79.7h-13.1v-54.6L261,190.1h-9.1l-24.4-54.6v54.6h-13.1V110.3z"/>
		
			<linearGradient id="SVGID_00000152950116821490299380000005934141556437036696_" gradientUnits="userSpaceOnUse" x1="213.9111" y1="158.4549" x2="493.3798" y2="158.4549">
			<stop  offset="0.1877" style="stop-color:#0088CA"/>
			<stop  offset="0.5359" style="stop-color:#006199"/>
			<stop  offset="0.9101" style="stop-color:#00345F"/>
		</linearGradient>
		<path style="fill:url(#SVGID_00000152950116821490299380000005934141556437036696_);" d="M341.1,125.8c10.7,0,18,5,21.9,10.2v-9.2
			h13.2v63.2H363v-9.4c-4,5.4-11.6,10.4-22.1,10.4c-16.4,0-29.6-13.4-29.6-32.9C311.2,138.7,324.4,125.8,341.1,125.8z M343.8,137.2
			c-9.8,0-19.2,7.3-19.2,21c0,13.7,9.4,21.6,19.2,21.6c9.9,0,19.2-7.7,19.2-21.3C363,144.9,353.7,137.2,343.8,137.2z"/>
		
			<linearGradient id="SVGID_00000171688804007589175410000006713791008432323204_" gradientUnits="userSpaceOnUse" x1="213.9111" y1="158.4549" x2="493.3798" y2="158.4549">
			<stop  offset="0.1877" style="stop-color:#0088CA"/>
			<stop  offset="0.5359" style="stop-color:#006199"/>
			<stop  offset="0.9101" style="stop-color:#00345F"/>
		</linearGradient>
		<path style="fill:url(#SVGID_00000171688804007589175410000006713791008432323204_);" d="M416.3,191.1c-15.1,0-25.8-9-26.4-20.4
			h13.5c0.5,5.2,5.4,9.4,12.6,9.4c7.6,0,11.6-3.2,11.6-7.6c0-12.4-36.7-5.3-36.7-28.5c0-10.1,9.4-18.2,24.3-18.2
			c14.3,0,23.8,7.7,24.4,20.3h-13.1c-0.5-5.5-4.7-9.3-11.8-9.3c-7,0-10.7,2.9-10.7,7.1c0,12.7,35.7,5.6,36.4,28.5
			C440.6,183.1,431.3,191.1,416.3,191.1z"/>
	</g>
	<g>
		
			<linearGradient id="SVGID_00000165234278824673094300000017042685341368290707_" gradientUnits="userSpaceOnUse" x1="213.9111" y1="54.5982" x2="493.3798" y2="54.5982">
			<stop  offset="0.1877" style="stop-color:#0088CA"/>
			<stop  offset="0.5359" style="stop-color:#006199"/>
			<stop  offset="0.9101" style="stop-color:#00345F"/>
		</linearGradient>
		<path style="fill:url(#SVGID_00000165234278824673094300000017042685341368290707_);" d="M250.8,13.9c16.6,0,31,8.4,37.1,24h-15.7
			c-4.2-8.5-11.8-12.5-21.3-12.5c-15.8,0-27.3,11.2-27.3,29.3S234.9,84,250.8,84c9.5,0,17.1-4,21.3-12.5h15.7
			c-6.1,15.6-20.4,23.9-37.1,23.9c-22.5,0-40.7-16.8-40.7-40.7C210,30.7,228.3,13.9,250.8,13.9z"/>
		
			<linearGradient id="SVGID_00000093855276543197229930000005930717536916203939_" gradientUnits="userSpaceOnUse" x1="213.9111" y1="63.0323" x2="493.3798" y2="63.0323">
			<stop  offset="0.1877" style="stop-color:#0088CA"/>
			<stop  offset="0.5359" style="stop-color:#006199"/>
			<stop  offset="0.9101" style="stop-color:#00345F"/>
		</linearGradient>
		<path style="fill:url(#SVGID_00000093855276543197229930000005930717536916203939_);" d="M328.6,30.4c10.7,0,18,5,21.9,10.2v-9.2
			h13.2v63.2h-13.2v-9.4c-4,5.4-11.6,10.4-22.1,10.4c-16.4,0-29.6-13.4-29.6-32.9C298.7,43.2,311.9,30.4,328.6,30.4z M331.3,41.7
			c-9.8,0-19.2,7.3-19.2,21c0,13.7,9.4,21.6,19.2,21.6c9.9,0,19.2-7.7,19.2-21.3C350.5,49.4,341.2,41.7,331.3,41.7z"/>
		
			<linearGradient id="SVGID_00000078044077606103774230000015327990676656559508_" gradientUnits="userSpaceOnUse" x1="213.9111" y1="63.0323" x2="493.3798" y2="63.0323">
			<stop  offset="0.1877" style="stop-color:#0088CA"/>
			<stop  offset="0.5359" style="stop-color:#006199"/>
			<stop  offset="0.9101" style="stop-color:#00345F"/>
		</linearGradient>
		<path style="fill:url(#SVGID_00000078044077606103774230000015327990676656559508_);" d="M403.8,95.7c-15.1,0-25.8-9-26.4-20.4
			H391c0.5,5.2,5.4,9.4,12.6,9.4c7.6,0,11.6-3.2,11.6-7.6c0-12.4-36.7-5.3-36.7-28.5c0-10.1,9.4-18.2,24.3-18.2
			c14.3,0,23.8,7.7,24.4,20.3h-13.1c-0.5-5.5-4.7-9.3-11.8-9.3c-7,0-10.7,2.9-10.7,7.1c0,12.7,35.7,5.6,36.4,28.5
			C428.1,87.6,418.8,95.7,403.8,95.7z"/>
		
			<linearGradient id="SVGID_00000082331926984628026230000001186859268149649581_" gradientUnits="userSpaceOnUse" x1="213.9111" y1="52.1884" x2="493.3798" y2="52.1884">
			<stop  offset="0.1877" style="stop-color:#0088CA"/>
			<stop  offset="0.5359" style="stop-color:#006199"/>
			<stop  offset="0.9101" style="stop-color:#00345F"/>
		</linearGradient>
		<path style="fill:url(#SVGID_00000082331926984628026230000001186859268149649581_);" d="M442.2,9.7h13.1v29
			c4.4-5.3,11.5-8.4,19.6-8.4c14.1,0,25.1,9.3,25.1,27v37.3h-13V59.3c0-11.6-6.3-17.6-15.8-17.6c-9.6,0-15.9,6-15.9,17.6v35.3h-13.1
			V9.7z"/>
	</g>
	
		<linearGradient id="SVGID_00000098921635779287669510000009308974735214904754_" gradientUnits="userSpaceOnUse" x1="213.9111" y1="245.779" x2="493.3798" y2="245.779">
		<stop  offset="0.1877" style="stop-color:#0088CA"/>
		<stop  offset="0.5359" style="stop-color:#006199"/>
		<stop  offset="0.9101" style="stop-color:#00345F"/>
	</linearGradient>
	<path style="fill:url(#SVGID_00000098921635779287669510000009308974735214904754_);" d="M304,242.6c0-11.6-6.3-17.6-15.8-17.6
		c-9.6,0-15.9,6-15.9,17.6v35.3h-13v-35.3c0-11.6-6.3-17.6-15.8-17.6c-9.6,0-15.9,6-15.9,17.6v35.3h-13.1v-63.2h13.1v7.2
		c4.2-5.2,11.1-8.3,18.7-8.3c10,0,18.4,4.2,22.7,12.5c3.9-7.7,12.9-12.5,22-12.5c14.8,0,26,9.3,26,27v37.3h-13V242.6z"/>
	
		<linearGradient id="SVGID_00000055672881748228643900000007227122704645896323_" gradientUnits="userSpaceOnUse" x1="213.9111" y1="246.2955" x2="493.3798" y2="246.2955">
		<stop  offset="0.1877" style="stop-color:#0088CA"/>
		<stop  offset="0.5359" style="stop-color:#006199"/>
		<stop  offset="0.9101" style="stop-color:#00345F"/>
	</linearGradient>
	<path style="fill:url(#SVGID_00000055672881748228643900000007227122704645896323_);" d="M352.7,256.5l-12.9,21.5h-13.7l20.4-31.1
		l-20.4-32.1H341l13.7,21.5l12.9-21.5h13.7l-20.4,31.2l20.4,32h-14.8L352.7,256.5z"/>
</g>
</svg>
