<?xml version="1.0" encoding="utf-8"?>
<!-- Generator: Adobe Illustrator 27.0.1, SVG Export Plug-In . SVG Version: 6.00 Build 0)  -->
<svg version="1.1" id="Capa_1" xmlns="http://www.w3.org/2000/svg" xmlns:xlink="http://www.w3.org/1999/xlink" x="0px" y="0px"
	 viewBox="0 0 250 249.6" style="enable-background:new 0 0 250 249.6;" xml:space="preserve">
<style type="text/css">
	.st0{fill:#3D6AC2;}
</style>
<g>
	<path class="st0" d="M250,82.4c-0.3,0.6-0.6,1.3-0.9,1.9c-1.9,4.2-6.1,6.5-10.7,6c-4.6-0.5-8.1-3.8-9-8.3c-0.2-1.2-0.3-2.4-0.3-3.6
		c0-15.4,0-30.8,0-46.2c0-7.4-3.8-11.2-11.2-11.2c-15.8,0-31.5,0-47.3,0c-7.2,0-12-5.3-11-12.1c0.5-3.6,2.6-6.2,5.9-7.8
		c0.6-0.3,1.3-0.6,1.9-0.9c18.6,0,37.1,0,55.7,0c0.4,0.1,0.7,0.4,1.1,0.4c10.9,2,18.6,8.1,23.2,18.1c1.2,2.6,1.8,5.5,2.6,8.3
		C250,45.3,250,63.8,250,82.4z"/>
	<path class="st0" d="M0,167.2c1.6-3.8,3.9-6.9,8.3-7.8c6.9-1.3,12.6,3.5,12.6,10.9c0.1,11.8,0,23.6,0,35.3c0,4,0,8,0,11.9
		c0,7.3,3.8,11.1,11.1,11.2c15.8,0,31.6,0,47.4,0c6.8,0,11.6,4.8,11.2,11.1c-0.3,5.3-4.5,9.7-9.8,9.7c-17.3,0.1-34.7,0.3-52-0.1
		C14.9,249,3,238,0.5,224.3c-0.1-0.5-0.3-1.1-0.5-1.6C0,204.2,0,185.7,0,167.2z"/>
	<path class="st0" d="M250,222.7c-1.2,5-2.7,9.8-5.8,14c-6.2,8.3-14.5,12.7-24.8,12.8c-16.3,0.1-32.6,0-48.8,0
		c-6.3,0-10.9-4.3-11-10.2c-0.1-6,4.5-10.6,11-10.6c16-0.1,31.9,0,47.9,0c3.4,0,6.2-0.9,8.5-3.5c1.9-2.1,2.4-4.7,2.4-7.5
		c0-15.8,0-31.5,0-47.3c0-6.1,3.6-10.5,9-11.2c4.9-0.6,9.2,1.8,11.2,6.4c0.2,0.5,0.5,1,0.7,1.5C250,185.7,250,204.2,250,222.7z"/>
	<path class="st0" d="M82.5,0c0.6,0.3,1.3,0.6,1.9,0.9c4.3,2,6.6,6.2,6,10.9c-0.6,4.4-3.9,7.9-8.3,8.7c-1.2,0.2-2.4,0.3-3.6,0.3
		c-15.4,0-30.9,0-46.3,0c-7.5,0-11.2,3.8-11.2,11.2c0,15.7,0,31.5,0,47.2c0,7.4-6,12.4-12.9,10.8c-4.2-1-6.5-4-8-7.7
		c0-18.5,0-37,0-55.6c0.1-0.4,0.4-0.7,0.4-1.1c1.4-8.3,5.7-14.9,12.4-19.9c4.2-3.1,9-4.6,14-5.8C45.4,0,64,0,82.5,0z"/>
	<path class="st0" d="M36.5,76c0-9.4,0-18.8,0-28.3c0-7.2,4.1-11.3,11.3-11.3c16.7,0,33.4,0,50,0c7,0,11.2,4.1,11.3,11.2
		c0.1,19.1,0.1,38.2,0,57.2c0,7-4.3,11.1-11.4,11.1c-16.7,0-33.4,0-50,0c-7,0-11.2-4.2-11.2-11.2C36.5,95.2,36.5,85.6,36.5,76z
		 M88.2,95.1c0-12.8,0-25.2,0-37.7c-10.3,0-20.5,0-30.7,0c0,12.7,0,25.2,0,37.7C67.8,95.1,77.9,95.1,88.2,95.1z"/>
	<path class="st0" d="M119.6,126.2c0-5.3,0-10.1,0-15c0-18.3,0-36.5,0-54.8c0-4.7,2.7-8.5,6.9-9.9c4.1-1.5,8.9-0.4,11.4,3.2
		c1.4,2,2.4,4.6,2.4,6.9c0.2,26.5,0.1,53.1,0.1,79.6c0,6.4-4.3,10.7-10.5,10.7c-27.6,0.1-55.2,0.1-82.7,0c-5.6,0-9.9-3.8-10.5-8.9
		c-0.6-5.5,2.6-10.3,7.9-11.5c1.2-0.3,2.4-0.3,3.6-0.3c22.8,0,45.6,0,68.3,0C117.4,126.2,118.4,126.2,119.6,126.2z"/>
	<path class="st0" d="M71.5,213.1c-7.9,0-15.8,0-23.7,0c-7.2,0-11.3-4.1-11.4-11.3c0-12,0-24,0-36c0-7,4.2-11.2,11.3-11.2
		c15.9,0,31.7,0,47.6,0c7.1,0,11.4,4.3,11.4,11.4c0,11.9,0,23.9,0,35.8c0,7.2-4.2,11.4-11.4,11.4C87.5,213.1,79.5,213.1,71.5,213.1z
		 M85.9,175.5c-9.6,0-19,0-28.4,0c0,5.7,0,11.2,0,16.7c9.6,0,19,0,28.4,0C85.9,186.5,85.9,181.1,85.9,175.5z"/>
	<path class="st0" d="M192.6,192.2c0-10.4,0-20.5,0-31c-4,0-7.9,0.1-11.8,0c-5.3-0.1-9.2-3.1-10.5-7.8c-1.6-6.3,2.9-12.7,9.4-12.9
		c8-0.2,16.1-0.2,24.2,0c5.6,0.1,9.6,4.8,9.6,10.8c0,13.3,0,26.6,0,39.9c0,3.8,0.1,7.6,0,11.4c-0.1,6.2-4.3,10.4-10.5,10.4
		c-16.4,0.1-32.9,0.1-49.3,0c-6,0-10.4-4.2-10.5-10.3c-0.2-11-0.1-22.1,0-33.1c0.1-6.1,4.7-10.4,10.6-10.4
		c5.8,0.1,10.2,4.6,10.2,10.8c0,7.3,0,14.6,0,22.1C173.6,192.2,183,192.2,192.6,192.2z"/>
	<path class="st0" d="M181.9,36.4c6.8,0,13.7,0,20.5,0c6.9,0,11,4.2,11.1,11.1c0,13.7,0,27.4,0,41.1c0,6.7-4.2,11-10.9,11
		c-13.8,0.1-27.6,0.1-41.5,0c-6.7,0-11-4.3-11-11c-0.1-13.7-0.1-27.4,0-41.1c0-6.9,4.3-11.1,11.1-11.1
		C168.1,36.4,175,36.4,181.9,36.4z M192.6,57.3c-7.4,0-14.5,0-21.5,0c0,7.3,0,14.4,0,21.4c7.3,0,14.4,0,21.5,0
		C192.6,71.5,192.6,64.5,192.6,57.3z"/>
	<path class="st0" d="M169.5,130.2c-0.2,2.2-0.2,4-0.5,5.7c-0.9,5.3-5.5,8.8-11.1,8.4c-5-0.3-9.3-4.6-9.4-9.8
		c-0.1-5.1-0.2-10.2,0-15.3c0.2-5,4-9,9-9.6c0.8-0.1,1.6-0.2,2.4-0.2c14.9,0,29.8,0,44.6,0c6,0,10.2,3,11.3,8.1
		c1.5,6.7-3.3,12.6-10.2,12.7c-11.1,0.1-22.3,0-33.4,0C171.4,130.2,170.5,130.2,169.5,130.2z"/>
	<path class="st0" d="M114.8,177.4c0-3.8,0-7.6,0-11.4c0.1-6.1,4.5-10.6,10.4-10.7c5.8,0,10.4,4.5,10.5,10.6
		c0.1,7.7,0.1,15.4,0,23.1c-0.1,6.1-4.6,10.7-10.4,10.7c-5.9,0-10.4-4.6-10.5-10.8C114.8,185,114.8,181.2,114.8,177.4z"/>
</g>
</svg>
