<?xml version="1.0" encoding="utf-8"?>
<!-- Generator: Adobe Illustrator 27.0.1, SVG Export Plug-In . SVG Version: 6.00 Build 0)  -->
<svg version="1.1" id="Capa_1" xmlns="http://www.w3.org/2000/svg" xmlns:xlink="http://www.w3.org/1999/xlink" x="0px" y="0px"
	 viewBox="0 0 250.1 250" style="enable-background:new 0 0 250.1 250;" xml:space="preserve">
<style type="text/css">
	.st0{fill:#3D6AC2;}
	.st1{fill:#FFFFFF;}
</style>
<g>
	<path class="st0" d="M250.1,130.1c-1.4,4.3-3.4,8.3-6.8,11.4c-4.4,4-9.5,6.2-15.5,6.2c-1.2,0-2.4,0-4.1,0c0,1,0,2,0,2.9
		c0,24,0,47.9,0,71.9c0,13.1-8.3,23.7-20.9,26.7c-2.2,0.5-4.5,0.7-6.8,0.7c-12.7,0.1-25.4,0-38.2,0c-5.5,0-8.5-2.9-8.5-8.4
		c0-18.8-0.2-37.5,0.1-56.3c0.1-8.2-5.4-14.3-14.2-14c-6.8,0.3-13.7,0-20.5,0.1c-8.5,0-13.5,5-13.5,13.6c0,18.7,0,37.3,0,56
		c0,6.4-2.7,9.1-9.1,9.1c-12.4,0-24.8,0-37.2,0c-16.4,0-28-11.6-28.1-28c0-23.6,0-47.3,0-70.9c0-1,0-1.9,0-3
		c-2.8-0.2-5.5-0.2-8.1-0.7c-8.7-1.7-14.7-6.9-17.5-15.2c-2.8-8.3-1.1-15.9,4.6-22.6c0.7-0.9,1.6-1.7,2.4-2.5
		C40.1,75.1,72,43.3,103.9,11.3C108.5,6.7,113,2,119.5,0c3.9,0,7.8,0,11.7,0c6.2,2,10.6,6.4,15,10.8c31.3,31.4,62.7,62.8,94.2,94.2
		c4.2,4.2,8,8.5,9.7,14.4C250.1,123,250.1,126.5,250.1,130.1z M164.1,235.3c1.2,0,2.1,0,3,0c8.6,0,17.1-0.4,25.7,0.1
		c10.6,0.6,16.6-4.6,16.4-16.5c-0.5-25.6-0.1-51.2-0.1-76.8c0-6.3,2.7-9,9.1-9c3.2,0,6.4,0,9.5,0c3.4-0.1,5.9-1.7,7.4-4.8
		c1.5-3.2,1-6.2-1.2-8.9c-0.7-0.8-1.4-1.6-2.2-2.3c-33-33-66-66-98.9-98.9c-5.3-5.3-9.5-5.4-14.8,0c-29.5,29.5-59,59-88.6,88.5
		c-4.1,4.1-8.2,8.1-12.3,12.3c-2.5,2.6-3.1,5.7-1.7,9c1.4,3.3,4,5,7.7,5.1c3.1,0.1,6.2,0,9.3,0c6.5,0,9.2,2.7,9.2,9.2
		c0,26.7,0,53.3,0,80c0,7.9,5.1,13,13,13c9.9,0,19.7,0,29.6,0c0.7,0,1.4-0.1,2.4-0.1c0-1.1,0-2.1,0-3c0-16-0.1-32,0-47.9
		c0.1-15.1,10.5-26.5,25.6-27.4c8.7-0.5,17.4-0.1,26.2-0.1c1.5,0,2.9,0.2,4.4,0.6c12.8,2.9,21.3,13.4,21.3,26.8c0.1,16,0,32,0,47.9
		C164.1,233,164.1,234,164.1,235.3z"/>
	<path class="st1" d="M164.1,235.3c0-1.3,0-2.3,0-3.2c0-16,0.1-32,0-47.9c-0.1-13.4-8.5-23.9-21.3-26.8c-1.4-0.3-2.9-0.6-4.4-0.6
		c-8.7,0-17.5-0.4-26.2,0.1c-15.1,0.9-25.5,12.2-25.6,27.4c-0.1,16,0,32,0,47.9c0,1,0,1.9,0,3c-0.9,0.1-1.7,0.1-2.4,0.1
		c-9.9,0-19.7,0-29.6,0c-7.8,0-13-5.2-13-13c0-26.7,0-53.3,0-80c0-6.5-2.7-9.2-9.2-9.2c-3.1,0-6.2,0-9.3,0c-3.6-0.1-6.3-1.8-7.7-5.1
		c-1.4-3.3-0.8-6.5,1.7-9c4-4.2,8.2-8.2,12.3-12.3c29.5-29.5,59-59,88.6-88.5c5.3-5.3,9.5-5.3,14.8,0c33,33,66,65.9,98.9,98.9
		c0.7,0.7,1.5,1.5,2.2,2.3c2.2,2.7,2.7,5.7,1.2,8.9c-1.5,3.1-4,4.7-7.4,4.8c-3.2,0.1-6.4,0-9.5,0c-6.4,0-9.1,2.7-9.1,9
		c0,25.6-0.3,51.2,0.1,76.8c0.2,11.9-5.8,17.1-16.4,16.5c-8.5-0.5-17.1-0.1-25.7-0.1C166.2,235.3,165.3,235.3,164.1,235.3z"/>
</g>
</svg>
