<?xml version="1.0" encoding="utf-8"?>
<!-- Generator: Adobe Illustrator 27.0.1, SVG Export Plug-In . SVG Version: 6.00 Build 0)  -->
<svg version="1.1" id="Capa_1" xmlns="http://www.w3.org/2000/svg" xmlns:xlink="http://www.w3.org/1999/xlink" x="0px" y="0px"
	 viewBox="0 0 250 179.1" style="enable-background:new 0 0 250 179.1;" xml:space="preserve">
<style type="text/css">
	.st0{fill:#3D6AC2;}
	.st1{fill:#FFFFFF;}
</style>
<g>
	<path class="st0" d="M250,19.9c0,46.5,0,92.9,0,139.4c-0.1,0.1-0.2,0.2-0.3,0.4c-3.3,13.2-11.4,19.5-25,19.5
		c-66.5,0-132.9,0-199.4,0c-0.8,0-1.6,0-2.4,0c-10-0.5-17.2-5.3-21.2-14.5c-0.7-1.7-1.1-3.5-1.6-5.3c0-46.5,0-92.9,0-139.4
		c0.1-0.1,0.2-0.3,0.3-0.4C3.6,6.2,11.6,0,25.3,0c66.5,0,132.9,0,199.4,0c0.9,0,1.8,0,2.7,0c10,0.4,18.3,6.5,21.4,15.7
		C249.2,17.1,249.6,18.5,250,19.9z M125.1,164.5c33.4,0,66.9,0,100.3,0c6.7,0,9.9-3.2,9.9-9.8c0-43.5,0-86.9,0-130.4
		c0-6.5-3.2-9.7-9.7-9.7c-67,0-134.1,0-201.1,0c-6.7,0-9.8,3.2-9.8,9.9c0,43.3,0,86.6,0,129.9c0,7,3.1,10.1,10.1,10.1
		C58.2,164.5,91.6,164.5,125.1,164.5z"/>
	<path class="st1" d="M125.1,164.5c-33.4,0-66.9,0-100.3,0c-7,0-10.1-3.1-10.1-10.1c0-43.3,0-86.6,0-129.9c0-6.7,3.2-9.9,9.8-9.9
		c67,0,134.1,0,201.1,0c6.5,0,9.7,3.2,9.7,9.7c0,43.5,0,86.9,0,130.4c0,6.6-3.2,9.8-9.9,9.8C192,164.5,158.5,164.5,125.1,164.5z
		 M98.1,107.5c10.4-12.8,7.7-28.1-1.2-36.9c-9.3-9.2-24.1-10.4-34.6-2.8c-5.3,3.9-8.9,9-10.4,15.4c-2.1,9,0,17.1,5.9,24.3
		c-0.4,0.3-0.7,0.6-1,0.7c-10.5,7.2-16.4,17.1-17.4,29.8c-0.6,6.6,2.3,9.8,8.9,9.8c8.3,0,16.6,0,24.9,0c11.6,0,23.3,0,34.9,0
		c6.1,0,9.2-3.1,8.5-9.2c-0.4-4.1-1.2-8.2-2.6-12.1C111,118.4,105.5,112.2,98.1,107.5z M125,46c25.5,0,51.1,0,76.6,0
		c1.1,0,2.1,0,3.2-0.2c4.3-0.8,6.9-4.9,5.7-9.1c-1-3.6-3.8-5.3-8.8-5.3c-51.1,0-102.2,0-153.2,0c-1,0-2,0-2.9,0.1
		c-4.7,0.7-7.5,5.5-5.7,9.9c1.2,3.1,3.9,4.6,8.1,4.6C73.6,46,99.3,46,125,46z M175.8,85.1c8.9,0,17.7,0,26.6,0
		c4.9,0,8.3-2.9,8.4-7.2c0.1-4.3-3.3-7.4-8.2-7.4c-17.7,0-35.5,0-53.2,0c-4.8,0-8.1,3-8.2,7.2c-0.1,4.3,3.4,7.4,8.2,7.4
		C158.2,85.1,167,85.1,175.8,85.1z M176,116.4c9,0,18.1,0,27.1,0c4.5,0,7.8-3.2,7.7-7.4c-0.1-4-3.3-7.2-7.7-7.2
		c-18.1,0-36.1-0.1-54.2,0.1c-1.6,0-3.4,0.6-4.7,1.5c-2.7,1.7-3.6,5-2.6,8c1,3,3.6,5,7,5C157.7,116.4,166.8,116.4,176,116.4z
		 M168.3,133.1c-6.3,0-12.7,0-19,0c-4.7,0-8.1,3.1-8.1,7.3c0,4.2,3.3,7.3,8,7.3c12.6,0.1,25.2,0.1,37.8,0c1.5,0,3.1-0.4,4.4-1
		c2.9-1.5,4.2-4.9,3.4-8.1c-0.8-3.2-3.6-5.3-7.2-5.4C181.1,133.1,174.7,133.2,168.3,133.1z"/>
	<path class="st0" d="M98.1,107.5c7.4,4.7,12.9,10.9,15.8,19.1c1.4,3.9,2.2,8,2.6,12.1c0.6,6-2.4,9.1-8.5,9.2c-11.6,0-23.3,0-34.9,0
		c-8.3,0-16.6,0-24.9,0c-6.6,0-9.4-3.2-8.9-9.8c1.1-12.7,6.9-22.6,17.4-29.8c0.3-0.2,0.5-0.4,1-0.7c-5.9-7.2-8-15.3-5.9-24.3
		c1.5-6.4,5.1-11.5,10.4-15.4c10.6-7.7,25.3-6.5,34.6,2.8C105.8,79.3,108.5,94.7,98.1,107.5z M100.5,133c-1.5-8.9-12.4-16.8-23-16.6
		c-10.2,0.2-21.1,8.3-22.1,16.6C70.5,133,85.4,133,100.5,133z M78,77.3c-6.8,0-12.2,5.4-12.3,12.1c-0.1,6.7,5.4,12.3,12.1,12.3
		c6.9,0.1,12.5-5.4,12.5-12.2C90.2,82.8,84.7,77.4,78,77.3z"/>
	<path class="st0" d="M125,46c-25.7,0-51.4,0-77.1,0c-4.2,0-6.9-1.5-8.1-4.6c-1.7-4.4,1-9.2,5.7-9.9c1-0.1,1.9-0.1,2.9-0.1
		c51.1,0,102.2,0,153.2,0c5,0,7.8,1.7,8.8,5.3c1.2,4.2-1.4,8.4-5.7,9.1c-1,0.2-2.1,0.2-3.2,0.2C176,46,150.5,46,125,46z"/>
	<path class="st0" d="M175.8,85.1c-8.8,0-17.6,0-26.4,0c-4.8,0-8.3-3.1-8.2-7.4c0.1-4.2,3.4-7.2,8.2-7.2c17.7,0,35.5,0,53.2,0
		c4.9,0,8.3,3.1,8.2,7.4c-0.1,4.3-3.5,7.2-8.4,7.2C193.5,85.1,184.7,85.1,175.8,85.1z"/>
	<path class="st0" d="M176,116.4c-9.1,0-18.2,0-27.3,0c-3.4,0-6-2-7-5c-1-3-0.1-6.3,2.6-8c1.4-0.9,3.1-1.5,4.7-1.5
		c18.1-0.1,36.1-0.1,54.2-0.1c4.3,0,7.6,3.2,7.7,7.2c0.1,4.1-3.2,7.3-7.7,7.4C194,116.5,185,116.4,176,116.4z"/>
	<path class="st0" d="M168.3,133.1c6.4,0,12.8-0.1,19.3,0c3.7,0,6.4,2.2,7.2,5.4c0.8,3.2-0.5,6.6-3.4,8.1c-1.3,0.7-2.9,1-4.4,1
		c-12.6,0.1-25.2,0.1-37.8,0c-4.8,0-8.1-3.1-8-7.3c0-4.2,3.4-7.2,8.1-7.3C155.6,133.1,162,133.1,168.3,133.1z"/>
	<path class="st1" d="M100.5,133c-15,0-30,0-45,0c1-8.3,11.8-16.4,22.1-16.6C88,116.2,99,124.1,100.5,133z"/>
	<path class="st1" d="M78,77.3c6.8,0,12.3,5.5,12.3,12.2c0,6.8-5.6,12.3-12.5,12.2c-6.7-0.1-12.2-5.6-12.1-12.3
		C65.7,82.7,71.2,77.3,78,77.3z"/>
</g>
</svg>
