<?xml version="1.0" encoding="utf-8"?>
<!-- Generator: Adobe Illustrator 27.0.1, SVG Export Plug-In . SVG Version: 6.00 Build 0)  -->
<svg version="1.1" id="Capa_1" xmlns="http://www.w3.org/2000/svg" xmlns:xlink="http://www.w3.org/1999/xlink" x="0px" y="0px"
	 viewBox="0 0 250 250" style="enable-background:new 0 0 250 250;" xml:space="preserve">
<style type="text/css">
	.st0{fill:#3D6AC2;}
</style>
<g>
	<path class="st0" d="M202.7,0c3.9,0.9,8,1.5,11.8,2.8C246.9,14,260,51.5,241.6,80.4c-2.2,3.4-4.9,6.5-7.7,9.4
		c-20.9,21.1-42,42-63,63c-11.3,11.3-24.9,16.9-40.9,16c-13-0.7-24.2-5.9-33.5-15c-4.2-4.1-4.2-10.3-0.4-14.5
		c3.8-4.1,10.1-4.5,14.5-0.6c5,4.5,10.5,7.9,17.3,9c9.7,1.5,18.4-0.8,25.9-7.3c2.6-2.3,5-4.9,7.5-7.3c19.4-19.4,38.8-38.8,58.2-58.2
		c10.8-10.8,12.9-26,5.5-38.7c-10-16.9-33.1-20.7-47.6-7.3c-9.2,8.5-17.8,17.6-26.7,26.5c-3.3,3.3-6.5,6.6-9.9,9.8
		c-4.5,4.3-10.8,4.3-14.9,0.2c-4.1-4.1-4.1-10.5,0.2-14.9c12.1-12.2,24.2-24.4,36.5-36.3c8.1-7.9,17.9-12.2,29.1-13.6
		c0.5-0.1,0.9-0.3,1.3-0.4C196.1,0,199.4,0,202.7,0z"/>
	<path class="st0" d="M0,192.9c0.8-3.5,1.4-7.1,2.5-10.6c2.5-8.4,7.2-15.6,13.4-21.8c19.2-19.2,38.4-38.5,57.7-57.6
		c16.7-16.6,39.7-20.7,60.6-10.4c4.9,2.4,9.4,6.1,13.6,9.7c4.4,3.8,4.2,10.3,0.3,14.4c-3.8,4-10,4.4-14.3,0.6
		c-5.1-4.6-10.6-8-17.5-9.1c-9.6-1.5-18.2,0.8-25.7,7.2c-2.2,1.9-4.1,3.9-6.1,5.9c-18,17.9-35.9,35.9-53.8,53.9
		c-10.7,10.8-12.8,26.1-5.3,38.7c10.1,16.9,33.2,20.6,47.6,7.2c10.3-9.6,20-19.8,30-29.7c3.1-3.1,6.6-4.6,11-3.4
		c7.1,2,9.8,10.5,5.3,16.3c-0.3,0.4-0.6,0.8-0.9,1.1c-10.5,10.4-20.7,21.2-31.6,31.3c-28.3,26.2-75.5,11.9-84.9-25.5
		c-0.7-2.8-1.2-5.7-1.8-8.5C0,199.4,0,196.1,0,192.9z"/>
</g>
</svg>
