<?xml version="1.0" encoding="utf-8"?>
<!-- Generator: Adobe Illustrator 27.0.1, SVG Export Plug-In . SVG Version: 6.00 Build 0)  -->
<svg version="1.1" id="Capa_1" xmlns="http://www.w3.org/2000/svg" xmlns:xlink="http://www.w3.org/1999/xlink" x="0px" y="0px"
	 viewBox="0 0 189.9 250" style="enable-background:new 0 0 189.9 250;" xml:space="preserve">
<style type="text/css">
	.st0{fill:#FFFFFF;}
	.st1{fill:#3D6AC2;}
</style>
<g>
	<path class="st0" d="M122,101.8c-0.3-1.9-0.4-3.9-1-5.8c-2.4-8.7-8.1-14.5-16.3-17.9c-4.5-1.9-9.1-3.5-13.6-5.3
		c-0.7-0.3-1.7-1.1-1.7-1.8c0-0.8,0.6-1.9,1.3-2.4c2.7-1.8,7.9-1,10.1,1.4c3.8,4,9.6,4.3,13.6,0.9c4-3.4,4.5-9.1,1.3-13.4
		c-2.7-3.6-6.2-5.9-10.3-7.6c-0.9-0.4-1.9-1.2-2.3-2.1c-2-3.7-5-5.8-9.2-5.7c-4.2,0.1-7.1,2.3-8.9,6.2c-0.4,0.8-1.2,1.7-2,2.1
		c-8.7,4.2-13.3,11.2-13.3,20.7c0,9.4,5.2,15.9,13.7,19.5c4.5,1.9,9.1,3.4,13.6,5.3c1.6,0.7,3.2,1.8,4.2,3.1
		c1.9,2.4,1.2,4.7-1.9,5.3c-3,0.5-6.2,0.7-9.2,0.4c-1.9-0.2-3.9-1.2-5.3-2.5c-4.1-3.6-9.8-3.9-13.7-0.2c-3.8,3.6-4.2,9.2-0.7,13.4
		c3.3,4.1,7.7,6.4,12.6,8c1.1,0.3,2.3,1.2,2.9,2.1c4,5.7,12.3,5.9,16.1,0.2c1-1.6,2.2-2.3,3.9-2.9
		C115.8,119.7,121.8,111.6,122,101.8z M95,169.5c11.6,0,23.1,0,34.7,0c6,0,10.3-4.1,10.3-9.7c0-5.5-4.3-9.8-10-9.8
		c-23.3-0.1-46.6-0.1-69.9,0.1c-2,0-4.2,0.8-5.9,1.9c-3.6,2.2-5,6.7-3.7,10.7c1.3,4.1,4.8,6.8,9.1,6.9
		C71.3,169.5,83.1,169.5,95,169.5z M95,188.3c-2.8,0-5.5,0-8.3,0c-8.9,0-17.8-0.1-26.7,0c-6.3,0.1-10.6,4.9-10,10.7
		c0.5,5.3,4.8,8.8,10.8,8.8c22.7,0,45.5,0,68.2,0c0.9,0,1.8,0,2.7-0.2c5.7-0.9,9.4-6.6,7.8-12.1c-1.3-4.6-4.9-7.2-10.3-7.2
		C117.8,188.2,106.4,188.3,95,188.3z"/>
	<path class="st1" d="M34.8,250c-3.4-0.9-6.8-1.6-10-2.8C10,241.5,0.1,227.3,0.1,211.5C0,153.9,0,96.3,0.1,38.7
		c0-21.3,17.5-38.6,38.9-38.6c31.4-0.1,62.8-0.1,94.2,0c10.6,0,19.7,3.8,27.3,11.2c6,5.9,12,11.9,18,17.9c7.6,7.7,11.5,17,11.5,27.9
		c0,34.8,0,69.6,0,104.5c0,6.2-4,10.5-9.8,10.5c-5.7,0-9.8-4.3-9.8-10.5c0-34.3-0.1-68.5,0-102.8c0-6.8-2.2-12.3-7.1-17
		c-5.4-5.1-10.6-10.4-15.8-15.7c-4.3-4.4-9.5-6.5-15.8-6.5c-30.6,0.1-61.1,0-91.7,0c-12.1,0-20.5,8.3-20.5,20.3
		c0,56.7,0,113.4,0,170.1c0,12.2,8.4,20.4,20.6,20.5c36.5,0,73.1,0,109.6,0c11.8,0,19.9-7.7,20.5-19.3c0.3-5.7,4.7-10,10.1-9.8
		c5.5,0.2,9.5,4.5,9.5,10.3c-0.1,18.5-14.5,35.1-32.9,37.8c-0.6,0.1-1.2,0.3-1.8,0.5C115,250,74.9,250,34.8,250z"/>
	<path class="st1" d="M122,101.8c-0.2,9.8-6.2,18-16,21.2c-1.7,0.6-2.9,1.3-3.9,2.9c-3.8,5.8-12.2,5.5-16.1-0.2
		c-0.7-0.9-1.8-1.8-2.9-2.1c-4.9-1.5-9.3-3.9-12.6-8c-3.4-4.2-3.1-9.9,0.7-13.4c3.9-3.6,9.6-3.4,13.7,0.2c1.4,1.3,3.4,2.3,5.3,2.5
		c3,0.3,6.2,0.2,9.2-0.4c3-0.6,3.8-2.8,1.9-5.3c-1.1-1.3-2.6-2.4-4.2-3.1c-4.5-1.9-9.2-3.4-13.6-5.3c-8.5-3.7-13.7-10.1-13.7-19.5
		c0-9.5,4.6-16.5,13.3-20.7c0.8-0.4,1.6-1.3,2-2.1c1.7-3.9,4.7-6.1,8.9-6.2c4.2-0.1,7.2,2,9.2,5.7c0.5,0.9,1.4,1.7,2.3,2.1
		c4.1,1.7,7.6,4,10.3,7.6c3.2,4.3,2.7,10-1.3,13.4c-4,3.4-9.8,3.1-13.6-0.9c-2.3-2.4-7.4-3.2-10.1-1.4c-0.7,0.5-1.3,1.6-1.3,2.4
		c0,0.6,1,1.5,1.7,1.8c4.5,1.8,9.1,3.4,13.6,5.3c8.2,3.4,14,9.1,16.3,17.9C121.6,97.9,121.7,99.9,122,101.8z"/>
	<path class="st1" d="M95,169.5c-11.8,0-23.6,0-35.4,0c-4.3,0-7.8-2.8-9.1-6.9c-1.2-4,0.1-8.5,3.7-10.7c1.7-1.1,3.9-1.8,5.9-1.9
		c23.3-0.1,46.6-0.1,69.9-0.1c5.8,0,10,4.3,10,9.8c0,5.6-4.3,9.7-10.3,9.7C118.1,169.5,106.5,169.5,95,169.5z"/>
	<path class="st1" d="M95,188.3c11.4,0,22.8,0,34.2,0c5.5,0,9,2.6,10.3,7.2c1.6,5.6-2.1,11.3-7.8,12.1c-0.9,0.1-1.8,0.2-2.7,0.2
		c-22.7,0-45.5,0-68.2,0c-6,0-10.3-3.5-10.8-8.8c-0.6-5.8,3.7-10.6,10-10.7c8.9-0.1,17.8,0,26.7,0C89.5,188.3,92.2,188.3,95,188.3z"
		/>
</g>
</svg>
