<?xml version="1.0" encoding="utf-8"?>
<!-- Generator: Adobe Illustrator 27.0.1, SVG Export Plug-In . SVG Version: 6.00 Build 0)  -->
<svg version="1.1" id="Capa_1" xmlns="http://www.w3.org/2000/svg" xmlns:xlink="http://www.w3.org/1999/xlink" x="0px" y="0px"
	 viewBox="0 0 250 250" style="enable-background:new 0 0 250 250;" xml:space="preserve">
<style type="text/css">
	.st0{fill-rule:evenodd;clip-rule:evenodd;fill:#4285F4;}
	.st1{fill-rule:evenodd;clip-rule:evenodd;fill:#34A853;}
	.st2{fill-rule:evenodd;clip-rule:evenodd;fill:#FBBC05;}
	.st3{fill-rule:evenodd;clip-rule:evenodd;fill:#EA4335;}
	.st4{fill:none;}
</style>
<g id="Google-Button">
	<g id="_x39_-PATCH" transform="translate(-728.000000, -160.000000)">
	</g>
	<g id="btn_google_light_pressed" transform="translate(-1.000000, -1.000000)">
		<g id="logo_googleg_48dp" transform="translate(15.000000, 15.000000)">
			<path id="Shape" class="st0" d="M231,113.8c0-8.9-0.8-17.4-2.3-25.6H111v48.4h67.3c-2.9,15.6-11.7,28.9-24.9,37.7v31.4h40.4
				C217.4,184,231,151.9,231,113.8L231,113.8z"/>
			<path id="Shape_00000124142593180983306630000017799977805721418673_" class="st1" d="M111,236c33.8,0,62-11.2,82.7-30.3
				l-40.4-31.4c-11.2,7.5-25.5,11.9-42.3,11.9c-32.6,0-60.1-22-69.9-51.5H-0.7v32.4C19.9,208,62.1,236,111,236L111,236z"/>
			<path id="Shape_00000078750981849493199110000006828421704636378507_" class="st2" d="M41.1,134.8c-2.5-7.5-3.9-15.5-3.9-23.8
				s1.4-16.2,3.9-23.8V54.9H-0.7C-9.2,71.7-14,90.8-14,111s4.8,39.3,13.3,56.1L41.1,134.8L41.1,134.8z"/>
			<path id="Shape_00000170991599424546716870000000868233930256962444_" class="st3" d="M111,35.7c18.4,0,34.8,6.3,47.8,18.7
				l35.9-35.9C173-1.6,144.7-14,111-14C62.1-14,19.9,14-0.7,54.9l41.8,32.4C50.9,57.7,78.4,35.7,111,35.7L111,35.7z"/>
			<path id="Shape_00000103248148133015294820000010274435572236306568_" class="st4" d="M-14-14h250v250H-14V-14z"/>
		</g>
		<g id="handles_square">
		</g>
	</g>
</g>
</svg>
