<?xml version="1.0" encoding="utf-8"?>
<!-- Generator: Adobe Illustrator 27.0.1, SVG Export Plug-In . SVG Version: 6.00 Build 0)  -->
<svg version="1.1" id="Capa_1" xmlns="http://www.w3.org/2000/svg" xmlns:xlink="http://www.w3.org/1999/xlink" x="0px" y="0px"
	 viewBox="0 0 250 91.9" style="enable-background:new 0 0 250 91.9;" xml:space="preserve">
<style type="text/css">
	.st0{fill:#009BDD;}
	.st1{fill:#00345F;}
</style>
<g>
	<path class="st0" d="M62.7,31.8c0-17.3-14-31.4-31.4-31.4C14,0.4,0,14.5,0,31.8C0,48.4,13,62,29.3,63.1V46.6
		c-7.3-1-12.9-7.2-12.9-14.8c0-8.3,6.7-15,15-15c8.3,0,15,6.7,15,15c0,3.1-0.9,5.9-2.5,8.3h1.8v3.3h3.2v3.3h3.5v3.2h2.9v2.3
		C59.9,46.7,62.7,39.6,62.7,31.8z"/>
	<path class="st1" d="M87.3,26.2c1.5-1.7,2.3-4,2.3-6.1c0-3.2-1.7-5.8-5-7c-1.6-0.6-5.7-1.3-8.8-1.7c-1.2-0.2-3.7-0.5-3.7-2.7
		c0-1.4,1.4-3,4.3-3c1.8,0,3.7,0.7,4.7,1.3c1.1,0.6,1.9,1.4,2.8,2.3l5.3-3.8C86.8,3.2,83.2,0,76.6,0C71.6,0,65,2.2,65,9.6
		c0,6.2,6,7.4,7.7,7.8c1.5,0.3,3.1,0.5,4.7,0.7c2.1,0.3,5,0.6,5,2.9c0,2-2.4,3.3-5.3,3.3c-1.7,0-3.6-0.4-5.5-1.4
		c-1.4-0.8-2-1.4-2.8-2.2l-5.4,3.5c1.8,2.1,5,5.8,13.1,5.8C80.5,30,84.7,29.2,87.3,26.2z M177.7,30c8.3,0,11.4-5.9,11.4-11.3
		c0-3.9-1.9-10.7-10.6-11.2c-8.1-0.4-12.2,4.7-12.2,11.2C166.2,26.6,171.7,30,177.7,30z M173.6,14.5c0.9-1.3,1.9-1.9,3.7-2.1
		c0.9-0.1,2.4,0,3.7,1.2c1.2,1.1,1.7,3,1.7,5.3c0,3.3-1.7,6.1-5,6.1c-3.5,0-5.1-3-5.1-6.3C172.5,17.2,172.8,15.8,173.6,14.5z
		 M161.1,17.4c0-2.7,0.9-3.1,3.9-3.7l2.1-0.3V7.9c-3.3,0.3-4.8,1.3-6.1,2.4V8.1h-6.1v21.3h6.3V17.4z M101.1,30.2c3.4,0,6.2-1.3,8-3
		c1.1-1,1.8-2.1,2.6-3.2l-4.7-2.4c-0.8,1.5-1.9,3.7-5.4,3.7c-3.4,0-4.9-2.6-4.8-5.3h15.2c-0.1-2.4-0.2-6.5-3-9.5
		c-2.7-2.9-6.4-3-7.6-3c-8.4,0-10.9,6.6-10.9,11.7C90.4,26.2,94.8,30.2,101.1,30.2z M98.1,13.4c0.6-0.7,1.7-1.4,3.2-1.4
		c1.1,0,2.3,0.4,3,1.2c0.9,0.9,1.1,2.1,1.2,3h-8.6C97,15.3,97.2,14.3,98.1,13.4z M127.4,10.1c-0.9-0.9-2.4-2.3-5.7-2.3
		c-7,0-9,6.1-9,10.4c0,3.7,1.1,6.9,3.9,8.8c1.4,0.9,3.1,1.4,4.8,1.4c2.9,0,4.4-1,5.6-1.8v2.3c0,1.7,0,4-3.8,4c-1,0-1.6-0.2-2-0.4
		c-1.7-0.8-1.7-2.1-1.8-3H113c0,1.1,0,3.3,1.6,5c1.1,1.2,3.9,2.6,8.1,2.6c1.9,0,5.1-0.3,7.2-1.6c3.1-1.8,3.2-4.5,3.2-6.8V8.1h-5.9
		V10.1z M123.1,23.6c-3.9,0-4-3.7-4-5.5c0-3,0.7-5.6,3.7-5.7c1.8-0.1,2.9,0.8,3.4,1.5c0.7,1,0.8,3.1,0.8,4.1
		C127,21.2,126.3,23.6,123.1,23.6z M147.3,27.3v2h6.3V8.1h-6.3v13.3c0,1.1-0.1,2.2-1.4,3c-0.9,0.5-1.8,0.5-2.2,0.5
		c-1.3,0-2.1-0.6-2.5-1.1c-0.5-0.7-0.5-1.6-0.5-2.5V8.1h-6.3v13.4c0,3.5,0.2,4.7,1.3,6.3c1.5,2,4,2.2,5.4,2.2c1.4,0,2.8-0.3,4-1
		C146.3,28.4,146.7,28,147.3,27.3z"/>
	<path class="st1" d="M75.6,63.7V35h-7.2v28.7H75.6z M84.4,44.4v-1.9h-6.3v21.2h6.3V52.2c0-2.6,0-5.3,3.3-5.3c1.2,0,2.3,0.5,2.8,1.6
		c0.2,0.6,0.3,1.3,0.3,3.2v11.9h6.2V49.2c0-3.3-0.6-5.2-2.8-6.4C93,42.2,91.6,42,90.3,42c-1.5,0-2.9,0.4-3.9,0.8
		C85.4,43.3,85,43.8,84.4,44.4z M107,46.4h4.1v-3.8h-4.1v-6.2h-6.2v6.2h-3.1v3.8h3.1V57c0,2,0,3.5,0.9,4.8c1.3,1.9,3.7,2.1,5.9,2.1
		c1.1,0,2-0.1,3.3-0.3v-4.9l-2.2,0.1c-1.7,0-1.7-1.1-1.6-2.4V46.4z M212,42.8c-1.1-0.6-2.5-0.9-3.8-0.9c-1.5,0-2.9,0.4-3.9,0.8
		c-1.1,0.5-1.5,1-2.1,1.7v-1.9H196v21.2h6.3V52.2c0-2.6,0-5.3,3.3-5.3c1.2,0,2.3,0.5,2.8,1.6c0.2,0.6,0.3,1.3,0.3,3.2v11.9h6.2V49.2
		C214.8,45.9,214.2,44,212,42.8z M191.7,44.8c-2.7-2.9-6.4-3-7.6-3c-8.4,0-10.9,6.6-10.9,11.7c0,6.9,4.4,11,10.7,11
		c3.4,0,6.2-1.3,8-3c1.1-1,1.8-2.1,2.6-3.2l-4.7-2.4c-0.8,1.5-1.9,3.7-5.4,3.7c-3.4,0-4.9-2.6-4.8-5.3h15.2
		C194.6,52,194.5,47.8,191.7,44.8z M179.6,50.5c0.2-0.9,0.4-1.9,1.3-2.8c0.6-0.7,1.7-1.4,3.2-1.4c1.1,0,2.3,0.4,3.1,1.2
		c0.9,0.9,1.1,2.1,1.2,3H179.6z M165.7,44.4c-0.9-0.9-2.4-2.3-5.7-2.3c-7,0-9,6.1-9,10.4c0,3.7,1.1,6.9,3.9,8.8
		c1.4,0.9,3.1,1.4,4.8,1.4c2.9,0,4.4-1,5.6-1.8v2.3c0,1.7,0,4-3.8,4c-1,0-1.6-0.2-2-0.4c-1.7-0.8-1.7-2.1-1.8-3h-6.5
		c0,1.1,0,3.3,1.6,5c1.1,1.2,3.9,2.6,8.1,2.6c1.9,0,5.1-0.3,7.2-1.6c3.1-1.8,3.2-4.5,3.3-6.8V42.5h-5.9V44.4z M161.5,58
		c-3.9,0-4-3.7-4-5.5c0-3,0.7-5.6,3.7-5.7c1.8-0.1,2.9,0.8,3.4,1.5c0.7,1,0.8,3.1,0.8,4.1C165.4,55.5,164.6,58,161.5,58z
		 M239.7,59.6c-3.4,0-4.9-2.6-4.8-5.3H250c-0.1-2.4-0.2-6.5-3-9.5c-2.7-2.9-6.4-3-7.6-3c-8.4,0-10.9,6.6-10.9,11.7
		c0,6.9,4.4,11,10.7,11c3.4,0,6.2-1.3,8-3c1.1-1,1.8-2.1,2.6-3.2l-4.7-2.4C244.3,57.4,243.1,59.6,239.7,59.6z M236.1,47.7
		c0.6-0.7,1.7-1.4,3.2-1.4c1.1,0,2.3,0.4,3.1,1.2c0.9,0.9,1.1,2.1,1.2,3h-8.7C235.1,49.6,235.3,48.6,236.1,47.7z M224.9,56.3v-10
		h4.1v-3.8H225v-6.2h-6.2v6.2h-3.1v3.8h3.1V57c0,2,0,3.5,0.9,4.8c1.3,1.9,3.7,2.1,5.9,2.1c1.1,0,1.9-0.1,3.3-0.3v-4.9l-2.2,0.1
		C224.9,58.7,224.9,57.6,224.9,56.3z M129.7,44.8c-2.7-2.9-6.4-3-7.6-3c-8.4,0-10.9,6.6-10.9,11.7c0,6.9,4.4,11,10.7,11
		c3.4,0,6.2-1.3,8-3c1.1-1,1.8-2.1,2.6-3.2l-4.7-2.4c-0.8,1.5-2,3.7-5.4,3.7c-3.4,0-4.9-2.6-4.8-5.3h15.2
		C132.6,52,132.5,47.8,129.7,44.8z M117.6,50.5c0.2-0.9,0.4-1.9,1.3-2.8c0.6-0.7,1.7-1.4,3.2-1.4c1.1,0,2.3,0.4,3,1.2
		c0.9,0.9,1.1,2.1,1.2,3H117.6z M133.9,63.7h6.3V35h-6.3V63.7z M143,39.8h6.2V35H143V39.8z M143,63.7h6.2V42.5H143V63.7z"/>
	<path class="st1" d="M92.6,70.4c-3.3,0-5,1.4-6.2,2.5c-1.1-1.2-2.4-2.5-5.8-2.5c-3.6,0-5.2,1.9-6,2.7V71h-6.1v21h6.1V80
		c0-1.5,0-3.1,1.4-4.1c0.6-0.4,1.2-0.5,1.7-0.5c1,0,1.9,0.4,2.4,1.1c0.6,0.8,0.6,2.1,0.6,3v12.4h6.1V80.5c0-2.3,0-3.5,1.2-4.4
		c0.6-0.5,1.4-0.7,2-0.7c0.5,0,2.1,0.1,2.7,1.9c0.2,0.8,0.2,2.4,0.2,3.6v11h6.1V78.2c0-2.3,0-3.7-0.6-4.8
		C97.9,72.1,96.1,70.4,92.6,70.4z M119.6,70.9h-6.6l-3,5.4l-2.8-5.4h-7l6.4,9.6l-7.1,11.4h6.8l3.5-6.5l4,6.5h6.6l-7.1-11.2
		L119.6,70.9z"/>
	<path class="st1" d="M60.8,59.9h-3.3v-3.4h-3.4v-3.1h-2.9v-3.1h-3.4v-3.1h-3.1v-3.3h-3.3v-3.3h-2.9v-3.1h-3.1v-3.3h-3.8v45h3.4
		v-3.4h3.1v-3.3h3.4v-3.3h2.9v3.3h3.3v6.7h3.4v6.1h6.4v6.7h6.4v-6.7h-6.3v-6.3h-3.1v-6h-3.3v-6.7h12.8v-3h-3.1V59.9z"/>
</g>
</svg>
