<?xml version="1.0" encoding="utf-8"?>
<!-- Generator: Adobe Illustrator 27.0.1, SVG Export Plug-In . SVG Version: 6.00 Build 0)  -->
<svg version="1.1" id="Capa_1" xmlns="http://www.w3.org/2000/svg" xmlns:xlink="http://www.w3.org/1999/xlink" x="0px" y="0px"
	 viewBox="0 0 250 239.1" style="enable-background:new 0 0 250 239.1;" xml:space="preserve">
<style type="text/css">
	.st0{fill:#FFFFFF;}
</style>
<g>
	<path class="st0" d="M124.8,0c6.3,0.3,10.7,3.3,13.4,8.9c7.6,15.4,15.3,30.7,22.9,46.1c2.2,4.5,4.4,9.1,6.8,13.4
		c0.6,1.1,2,2.1,3.2,2.3c19.4,2.9,38.9,5.7,58.4,8.6c2.4,0.4,4.9,0.7,7.3,1.1c6.1,1,10.5,4.2,12.4,10.2c1.9,6,0.1,11.1-4.4,15.4
		c-7.2,7-14.4,14-21.6,21c-8.5,8.2-16.9,16.5-25.4,24.7c-1.4,1.3-1.9,2.6-1.6,4.5c3.4,20,6.8,39.9,10.2,59.9c0.5,2.9,1.2,5.8,1,8.7
		c-0.5,10.7-11.4,17-21.1,12.2c-7.4-3.6-14.6-7.6-21.9-11.4c-12.5-6.5-25-13-37.4-19.6c-1.7-0.9-2.9-0.8-4.5,0.1
		c-19.6,10.3-39.4,20.6-59,30.9c-5.4,2.8-10.5,3-15.5-0.6c-4.9-3.6-6.8-8.6-5.8-14.7c3.8-22,7.5-44.1,11.3-66.1
		c0.3-1.8-0.2-2.8-1.4-4C36.5,136.4,20.8,121.1,5,105.8c-4.2-4.1-6-9-4.5-14.7c1.7-6.4,6.2-9.9,12.7-10.9
		c21.8-3.2,43.6-6.3,65.4-9.4c1.8-0.3,2.7-1.1,3.4-2.6c9.7-19.7,19.4-39.3,29.1-59C114,3.5,118.4,0.3,124.8,0z"/>
</g>
</svg>
