<?xml version="1.0" encoding="utf-8"?>
<!-- Generator: Adobe Illustrator 27.0.1, SVG Export Plug-In . SVG Version: 6.00 Build 0)  -->
<svg version="1.1" id="Capa_1" xmlns="http://www.w3.org/2000/svg" xmlns:xlink="http://www.w3.org/1999/xlink" x="0px" y="0px"
	 viewBox="0 0 249 250" style="enable-background:new 0 0 249 250;" xml:space="preserve">
<style type="text/css">
	.st0{fill:#C0D6FA;}
	.st1{fill:#3D6AC2;}
	.st2{fill:#FFFFFF;}
</style>
<g>
	<path class="st0" d="M77.6,0c36,0,71.9,0,107.9,0c0,18.2,0,36.5,0,54.7c0,6,2.7,8.8,8.8,8.8c17.3,0,34.7,0,52,0c0.9,0,1.7,0,2.7,0
		c0,1.1,0,2,0,2.8c0,53.5,0,106.9,0,160.4c0,14.1-9.3,23.4-23.4,23.4c-36.8,0-73.6,0-110.3,0c-0.8,0-1.6,0-3,0
		c19.9-14.9,31.2-34.3,33.9-58.6c3.4,0,6.5,0,9.7,0c16.9,0,33.9,0,50.8,0c3.4,0,6.1-1.3,7.5-4.4c2.3-5-1.4-10.2-7.3-10.2
		c-19.3,0-38.6,0-57.9,0c-0.9,0-1.9,0-2.9,0c-0.9-10.4-3.9-20-8.4-29.3c12,0,23.5,0,35.1,0c11.4,0,22.8,0,34.2,0
		c3.3,0,5.9-1.4,7.2-4.5c2.2-5-1.5-10.2-7.4-10.2c-25.1,0-50.3,0-75.4,0c-2.4,0-4-0.7-5.6-2.5c-14.1-15.5-31.6-24.5-52.5-26.4
		c-4.8-0.4-9.7-0.1-14.6-0.1c-0.1-0.7-0.2-1-0.2-1.3c0-27.1-0.1-54.2,0.1-81.3c0-6.8,2.9-12.6,8.5-16.5C70.2,2.6,74.1,1.6,77.6,0z
		 M153.5,103.5c17.7,0,35.5,0,53.2,0c3.3,0,5.9-1.2,7.4-4.2c2.5-5.1-1.2-10.4-7.2-10.5c-24.9,0-49.8,0-74.6,0c-10.5,0-21,0-31.5,0
		c-3.2,0-5.7,1.2-7.2,4.1c-2.6,5,1.1,10.5,7,10.6C118.2,103.5,135.9,103.5,153.5,103.5z"/>
	<path class="st1" d="M66,250c-36.4,0-66-29.6-66-66c0-36.3,29.6-65.8,65.9-65.8c36.4,0,66,29.6,66,66C131.8,220.4,102.2,250,66,250
		z M55.6,194.8c-3.1-3.1-5.9-6-8.8-8.9c-3.5-3.5-8-3.7-11-0.7c-3.1,3.1-2.8,7.5,0.7,11c4.2,4.3,8.5,8.5,12.8,12.8
		c4.5,4.5,8.3,4.5,12.8,0c10.7-10.7,21.4-21.4,32.1-32.1c0.6-0.6,1.1-1.2,1.6-1.8c3.1-4.4,0.8-10.4-4.5-11.4
		c-2.9-0.6-5.2,0.6-7.2,2.6C74.7,175.7,65.3,185.1,55.6,194.8z"/>
	<path class="st1" d="M200.3,48.6c0-14.7,0-29.2,0-43.3c14.4,14.4,29,29,43.4,43.3C229.6,48.6,215.1,48.6,200.3,48.6z"/>
	<path class="st2" d="M55.6,194.8c9.7-9.7,19-19,28.4-28.4c2-2,4.3-3.2,7.2-2.6c5.3,1.1,7.6,7,4.5,11.4c-0.5,0.7-1,1.2-1.6,1.8
		c-10.7,10.7-21.4,21.4-32.1,32.1c-4.5,4.5-8.3,4.5-12.8,0c-4.3-4.3-8.5-8.5-12.8-12.8c-3.5-3.5-3.8-7.9-0.7-11
		c3.1-3.1,7.5-2.8,11,0.7C49.7,188.8,52.6,191.7,55.6,194.8z"/>
</g>
</svg>
