<?xml version="1.0" encoding="utf-8"?>
<!-- Generator: Adobe Illustrator 27.0.1, SVG Export Plug-In . SVG Version: 6.00 Build 0)  -->
<svg version="1.1" id="Capa_1" xmlns="http://www.w3.org/2000/svg" xmlns:xlink="http://www.w3.org/1999/xlink" x="0px" y="0px"
	 viewBox="0 0 250 249.5" style="enable-background:new 0 0 250 249.5;" xml:space="preserve">
<style type="text/css">
	.st0{fill:#3D6AC2;}
	.st1{fill:#C0D6FA;}
</style>
<g>
	<path class="st0" d="M124.9,0C193.8-0.1,249.8,55.7,250,124.5c0.2,68.8-55.9,124.9-124.9,125C56.1,249.6,0,193.5,0,124.7
		C0,55.9,56,0.1,124.9,0z M124.9,234.8c60.9,0.1,110.1-48.9,110.3-109.9c0.2-60.8-49.2-110.2-110.2-110.2
		c-60.9,0-110.1,48.9-110.3,109.8C14.5,185.3,63.9,234.7,124.9,234.8z"/>
	<path class="st1" d="M124.9,137.6c10.3,0,20.6-0.1,30.9,0c20.4,0.2,36,9.4,47.3,26c2.6,3.8,4.1,8.2,6.1,12.3
		c0.8,1.5,0.5,2.8-0.5,4.2c-17.9,25.8-42.3,41.3-73.7,44.2c-39.2,3.5-70.2-11.6-93.3-43.3c-1.4-2-1.6-3.6-0.8-5.9
		c9-24.4,32.9-38.1,53.3-37.5C104.5,137.8,114.7,137.6,124.9,137.6z"/>
	<path class="st1" d="M125,29.4c27.6,0,49.9,22.2,49.9,49.7c0,27.5-22.6,50-50.1,49.9c-27.5-0.1-49.8-22.5-49.7-49.9
		C75.1,51.6,97.5,29.4,125,29.4z"/>
</g>
</svg>
