<?xml version="1.0" encoding="utf-8"?>
<!-- Generator: Adobe Illustrator 27.0.1, SVG Export Plug-In . SVG Version: 6.00 Build 0)  -->
<svg version="1.1" id="Capa_1" xmlns="http://www.w3.org/2000/svg" xmlns:xlink="http://www.w3.org/1999/xlink" x="0px" y="0px"
	 viewBox="0 0 229.3 250" style="enable-background:new 0 0 229.3 250;" xml:space="preserve">
<style type="text/css">
	.st0{fill:#FFFFFF;}
</style>
<g>
	<path class="st0" d="M182.2,0c3.9,0.9,8,1.6,11.8,2.9c22.9,7.7,37.5,30.5,35,54.5c-2.4,23.8-20.9,42.9-44.6,46.2
		c-28.2,3.9-54-15.1-58.7-43.4c-4.6-27.6,14.3-54.3,42-59.3c1.4-0.3,2.8-0.6,4.2-0.9C175.4,0,178.8,0,182.2,0z"/>
	<path class="st0" d="M100.2,250c-4.9-1.6-10.1-2.6-14.7-5C75,239.5,68.7,230.5,66,218.8c25.5,0,50.8,0,76.8,0
		c-1.3,3.4-2.2,6.8-3.8,9.8c-6.2,11.8-16,18.8-29.1,21c-0.5,0.1-0.9,0.3-1.4,0.4C105.7,250,103,250,100.2,250z"/>
	<path class="st0" d="M111,21.3c-10.2,24.3-9.4,47.8,4.9,70c14.2,22.1,35.1,32.8,61,33.9c0.9,5.1,1.5,10.3,2.7,15.3
		c3.5,13.8,10.6,25.4,21.4,34.8c5.1,4.4,8,9.6,7.4,16.4c-1,9.6-8.5,16.1-18.8,16.7c-0.7,0-1.5,0-2.2,0c-55.4,0-110.8,0-166.3-0.1
		c-3.2,0-6.6-0.5-9.5-1.7c-12.8-5-15.6-20.9-5.4-30.1c8.5-7.5,15.2-16.2,19.6-26.7c3.4-8.2,5.3-16.7,5.4-25.6c0.1-10,0-20,0-30
		c0.1-33.8,21.6-61.9,54.2-71c7.9-2.2,16-2.7,24.2-2.2C110.1,21.1,110.5,21.2,111,21.3z"/>
</g>
</svg>
