<?xml version="1.0" encoding="utf-8"?>
<!-- Generator: Adobe Illustrator 27.0.1, SVG Export Plug-In . SVG Version: 6.00 Build 0)  -->
<svg version="1.1" id="Capa_1" xmlns="http://www.w3.org/2000/svg" xmlns:xlink="http://www.w3.org/1999/xlink" x="0px" y="0px"
	 viewBox="0 0 250 237.6" style="enable-background:new 0 0 250 237.6;" xml:space="preserve">
<style type="text/css">
	.st0{fill:#C0D6FA;}
	.st1{fill:#3D6AC2;}
</style>
<g>
	<path class="st0" d="M250,112.5c0,1.6,0,3.3,0,4.9c-1.5,2.5-2.8,5.3-4.7,7.5c-2.4,2.7-6,3.1-9.5,3.1c-5.4,0-10.9,0-16.6,0
		c0,1.2,0,2.2,0,3.1c0,32.6,0,65.3,0,97.9c0,5.9-2.7,8.7-8.6,8.7c-19.6,0-39.2,0-58.8,0c-6,0-8.7-2.7-8.7-8.8c0-19.2,0-38.4,0-57.6
		c0-0.9,0-1.9,0-2.8c-12.2,0-24.1,0-36.1,0c0,1.1,0,2,0,2.8c0,19.1,0,38.2,0,57.4c0,6.4-2.6,9.1-9,9.1c-19.4,0-38.7,0-58.1,0
		c-6.6,0-9.1-2.6-9.1-9.2c0-32.5,0-64.9,0-97.4c0-1,0-1.9,0-3.1c-5.8,0-11.3,0-16.8,0c-4.8,0-8.8-1.5-11.6-5.6c-1-1.5-1.6-3.3-2.4-5
		c0-1.6,0-3.3,0-4.9c1.2-3.2,3.1-5.9,5.7-8.3C42.2,71,78.7,37.7,115.2,4.4c1.1-1,2.4-2,3.7-2.8c5.4-3,10.7-1.9,16.2,3.1
		c35.8,32.6,71.6,65.3,107.4,97.8C245.7,105.4,248.7,108.3,250,112.5z"/>
	<path class="st1" d="M224.7,66.3c-19-17.3-37.5-34.1-56.4-51.3c1.1-0.1,1.7-0.2,2.4-0.2c15.2,0,30.4,0,45.6,0
		c5.6,0,8.4,2.8,8.4,8.4c0,13.6,0,27.2,0,40.8C224.7,64.5,224.7,65,224.7,66.3z"/>
</g>
</svg>
