<?xml version="1.0" encoding="utf-8"?>
<!-- Generator: Adobe Illustrator 27.0.1, SVG Export Plug-In . SVG Version: 6.00 Build 0)  -->
<svg version="1.1" id="Capa_1" xmlns="http://www.w3.org/2000/svg" xmlns:xlink="http://www.w3.org/1999/xlink" x="0px" y="0px"
	 viewBox="0 0 249.6 250" style="enable-background:new 0 0 249.6 250;" xml:space="preserve">
<style type="text/css">
	.st0{fill:#C0D6FA;}
	.st1{fill:#3D6AC2;}
</style>
<g>
	<path class="st0" d="M86.3,250c-2.1,0-4.2,0-6.3,0c-1-0.3-2-0.6-3-0.9c-21-7-42.1-13.9-63.1-21.1c-7.3-2.5-11.7-7.9-13.4-15.4
		c-0.1-0.4-0.3-0.7-0.4-1.1C0,146.8,0,82.2,0,17.6c0.2-0.6,0.4-1.2,0.6-1.8C2.4,9.2,6.5,4.4,12.8,1.6C14.3,1,16,0.5,17.5,0
		C58,0,98.4,0,138.9,0c0.6,0.2,1.2,0.4,1.9,0.5c13.5,2.4,24.9,14.4,25.4,27.8c0.4,11.6,0.2,23.3,0.1,34.9c0,4.3-2.5,7.3-6.5,9
		c-6.7,2.8-14-2.1-14.1-9.4c-0.1-10,0-20-0.1-30c0-7.7-4.1-11.8-11.7-11.8c-14.5,0-28.9,0-43.4,0c-0.7,0-1.4,0.1-2.2,0.1
		c0.2,0.3,0.2,0.4,0.3,0.5c11.3,4.7,15.2,10.7,15.2,22.8c0,50.1,0,100.3,0,150.4c0,1,0,2,0,3.2c1.3,0,2.2,0,3.1,0
		c8.7,0,17.4-0.3,26.1,0.1c8.6,0.4,12.8-5.4,12.6-12.5c-0.3-12.8-0.1-25.6-0.1-38.3c0-1.4,0-2.8,0.4-4.1c1.3-4.8,6.1-8.1,10.9-7.5
		c5.4,0.6,9.3,4.7,9.4,10.1c0.1,14,0.1,28,0,42c-0.2,17.7-13.8,31.2-31.6,31.2c-9.3,0-18.7,0-28,0c-0.9,0-1.7,0-2.8,0
		c0,4,0.1,7.7,0,11.3c-0.2,6.5-2.9,11.9-8.2,15.6C92.8,247.6,89.4,248.6,86.3,250z"/>
	<path class="st1" d="M187.1,93.8c0-10.2,0-20,0-29.9c0-5.5,2.2-9.4,6.5-11c4.8-1.8,8.8-0.3,12.3,3.2c13.2,13.3,26.5,26.6,39.8,39.9
		c5.1,5.2,5.1,11.1,0,16.3c-13.3,13.4-26.7,26.7-40,40.1c-3.5,3.5-7.4,5-12.1,3c-4.7-2-6.5-5.8-6.5-10.7c0.1-9,0-18.1,0-27.1
		c0-0.9,0-1.8,0-3c-1.1,0-2.1,0-3,0c-12.6,0-25.2,0-37.8,0c-5.7,0-9.9-3.2-10.9-8.2c-1.4-6.7,3.4-12.6,10.3-12.6
		c12.8-0.1,25.7,0,38.5,0C185.1,93.7,186,93.8,187.1,93.8z"/>
</g>
</svg>
