<?xml version="1.0" encoding="utf-8"?>
<!-- Generator: Adobe Illustrator 27.0.1, SVG Export Plug-In . SVG Version: 6.00 Build 0)  -->
<svg version="1.1" id="Capa_1" xmlns="http://www.w3.org/2000/svg" xmlns:xlink="http://www.w3.org/1999/xlink" x="0px" y="0px"
	 viewBox="0 0 241.2 250" style="enable-background:new 0 0 241.2 250;" xml:space="preserve">
<style type="text/css">
	.st0{fill:#C0D6FA;}
	.st1{fill:#3D6AC2;}
</style>
<g>
	<path class="st0" d="M196.3,0c0.1,3.2,0.1,6.3,0.2,9.5c0.1,7.8-0.1,15.6,0.3,23.4c0.3,6.2,5.6,11.3,11.9,11.5
		c9.8,0.3,19.5,0.2,29.3,0.2c1,0,1.9,0,3.1,0c0,1.1,0.1,2,0.1,2.8c0,47.6,0,95.2,0,142.8c0,9.7-5.4,15.1-15.1,15.1
		c-6.7,0-13.5,0-20.6,0c0-1.2,0-2.3,0-3.3c0-45.7,0-91.5,0-137.2c0-2.9-0.9-5.1-2.9-7.1C188.6,44,174.8,30.1,161,16.2
		c-2-2-4.1-2.8-6.9-2.8c-20.5,0.1-41,0-61.5,0c-1,0-1.9,0-2.9,0c-0.5-5.2,3.1-10.5,8.2-12.4c0.7-0.3,1.5-0.6,2.2-0.9
		C132.1,0,164.2,0,196.3,0z"/>
	<path class="st1" d="M107.2,44.8c0,1.1,0,1.9,0,2.8c0,8.7,0.3,17.4-0.1,26.1c-0.4,10.5,6.8,16,15.6,15.7c8.7-0.3,17.4-0.1,26.1-0.1
		c0.9,0,1.8,0,3,0c0,1,0,1.9,0,2.8c0,47.6,0,95.2,0,142.8c0,9.7-5.4,15.1-15.1,15.1c-40.5,0-81.1,0-121.6,0C5.4,250,0,244.6,0,234.9
		c0-58.4,0-116.8,0-175.3c0-9.3,5.3-15,14.5-15c30.3-0.1,60.5,0,90.8,0C105.8,44.6,106.3,44.7,107.2,44.8z M138.5,116
		c0-2.2-0.2-4.2,0-6.1c0.2-2.3-0.6-2.8-2.8-2.8c-25,0.1-49.9,0-74.9,0c-0.9,0-1.7,0-2.5,0c0,3.2,0,6,0,8.9
		C85,116,111.5,116,138.5,116z M66.9,134c-17.9,0-35.5,0-53.3,0c0,3,0,5.8,0,8.6c17.8,0,35.5,0,53.3,0C66.9,139.7,66.9,137,66.9,134
		z M13.6,196.2c17.8,0,35.5,0,53.2,0c0-3,0-5.8,0-8.5c-17.8,0-35.5,0-53.2,0C13.6,190.6,13.6,193.4,13.6,196.2z M138.3,134
		c-11.9,0-23.6,0-35.6,0c0,2.3,0.1,4.5,0,6.6c-0.1,1.9,0.6,2.3,2.4,2.3c10.4-0.1,20.8,0,31.2,0c0.7,0,1.4-0.1,2.1-0.2
		C138.3,139.7,138.3,137,138.3,134z M13.6,160.8c0,2.9,0,5.7,0,8.6c11.9,0,23.6,0,35.4,0c0-3,0-5.8,0-8.6
		C37.1,160.8,25.4,160.8,13.6,160.8z M58.2,160.8c0,3,0,5.8,0,8.7c11.9,0,23.6,0,35.4,0c0-3,0-5.8,0-8.7
		C81.8,160.8,70.1,160.8,58.2,160.8z M49.1,214.5c-11.9,0-23.7,0-35.5,0c0,2.9,0,5.7,0,8.5c11.9,0,23.7,0,35.5,0
		C49.1,220,49.1,217.3,49.1,214.5z M93.7,214.5c-12,0-23.7,0-35.4,0c0,3,0,5.8,0,8.5c11.9,0,23.6,0,35.4,0
		C93.7,220.1,93.7,217.4,93.7,214.5z M111.8,196.2c8.9,0,17.6,0,26.5,0c0-2.9,0-5.7,0-8.6c-8.9,0-17.6,0-26.5,0
		C111.8,190.5,111.8,193.2,111.8,196.2z M76.1,196.2c8.9,0,17.6,0,26.5,0c0-2.9,0-5.7,0-8.6c-8.9,0-17.6,0-26.5,0
		C76.1,190.5,76.1,193.3,76.1,196.2z M13.7,107.3c0,3,0,5.8,0,8.7c6,0,11.7,0,17.4,0c0-3,0-5.8,0-8.7
		C25.2,107.3,19.5,107.3,13.7,107.3z M76.1,142.7c6,0,11.7,0,17.6,0c0-3,0-5.8,0-8.6c-5.9,0-11.7,0-17.6,0
		C76.1,137,76.1,139.8,76.1,142.7z M120.7,223c6,0,11.8,0,17.6,0c0-3,0-5.8,0-8.5c-6,0-11.8,0-17.6,0
		C120.7,217.4,120.7,220.1,120.7,223z M120.7,160.8c0,2.9,0,5.7,0,8.6c5.9,0,11.7,0,17.6,0c0-3,0-5.8,0-8.6
		C132.3,160.8,126.6,160.8,120.7,160.8z M40.4,107.3c0,3.1,0,5.9,0,8.7c3,0,5.8,0,8.6,0c0-3,0-5.7,0-8.7
		C46.1,107.3,43.3,107.3,40.4,107.3z M111.6,223.1c0-3,0-5.8,0-8.6c-2.9,0-5.7,0-8.7,0c0,2.9,0,5.7,0,8.6
		C105.8,223.1,108.6,223.1,111.6,223.1z M102.9,160.8c0,3,0,5.8,0,8.7c3,0,5.8,0,8.6,0c0-3,0-5.8,0-8.7
		C108.6,160.8,105.9,160.8,102.9,160.8z"/>
	<path class="st0" d="M45,35.7c-0.5-6.4,4.8-12.5,11.3-13.2c1-0.1,2.1-0.1,3.2-0.1c29.9,0,59.9,0,89.8,0c0.7,0,1.4,0,2.5,0
		c0,1,0,1.9,0,2.7c0,9,0,18.1,0,27.1c0,9.3,5.4,14.7,14.7,14.7c9,0,17.9,0,26.9,0c0.9,0,1.8,0,2.9,0c0.1,1,0.2,1.9,0.2,2.7
		c0,47.7,0,95.3,0,143c0,9.6-5.3,14.9-14.9,15c-6.8,0-13.6,0-20.8,0c0-1.2,0-2.3,0-3.3c0-45.7,0-91.4,0.1-137.2c0-3-0.9-5.2-3-7.3
		c-13.8-13.6-27.5-27.3-41.1-41.1c-2.2-2.2-4.4-3.2-7.5-3.2c-20.4,0.1-40.8,0.1-61.3,0.1C46.9,35.7,46,35.7,45,35.7z"/>
	<path class="st1" d="M188.9,58.1c-4,0-8.6,0-13.2,0c-3.2,0-6.5,0.1-9.7,0c-3.3-0.1-5.2-1.7-5.2-4.8c-0.1-7.9,0-15.9,0-23.4
		C170.1,39.2,179.6,48.7,188.9,58.1z"/>
	<path class="st1" d="M116.2,51.6c9.6,9.6,19.1,19.1,28.5,28.5c-8.3,0-16.7,0.1-25.2-0.1c-2,0-3.2-1.9-3.2-4
		C116.1,67.9,116.2,59.8,116.2,51.6z"/>
	<path class="st1" d="M233.6,35.7c-4.2,0-8.9,0-13.6,0c-3.3,0-6.7,0.1-10,0c-2.7-0.1-4.5-1.6-4.5-4.2c-0.1-8.1,0-16.2,0-23.9
		C214.8,16.9,224.2,26.3,233.6,35.7z"/>
</g>
</svg>
