<?xml version="1.0" encoding="utf-8"?>
<!-- Generator: Adobe Illustrator 27.0.1, SVG Export Plug-In . SVG Version: 6.00 Build 0)  -->
<svg version="1.1" id="Capa_1" xmlns="http://www.w3.org/2000/svg" xmlns:xlink="http://www.w3.org/1999/xlink" x="0px" y="0px"
	 viewBox="0 0 249.9 250" style="enable-background:new 0 0 249.9 250;" xml:space="preserve">
<style type="text/css">
	.st0{fill:#FFFFFF;}
	.st1{fill:#3D6AC2;}
</style>
<g>
	<g>
		<path class="st0" d="M132.8,250c-5.2,0-10.4,0-15.6,0c-0.5-0.1-1.1-0.3-1.6-0.4c-5.7-0.8-11.5-1.4-17.1-2.5
			C50,237.4,9.8,195.7,2,147.1c-0.8-4.7-1.3-9.5-2-14.2c0-5.2,0-10.4,0-15.6c0.8-5.5,1.3-11,2.4-16.4C17.7,23,101.8-22.8,177.2,11.6
			c53.9,24.6,82.5,83.1,69.7,141c-10.8,48.8-51.2,87.3-100.4,95.5C141.9,248.9,137.3,249.4,132.8,250z M105.5,96.4
			c0.1-4.9,2.5-10.1,7.4-13.9c6.2-4.8,13.1-5.7,20.2-2.4c7.3,3.4,11,9.3,11.4,17.3c0.3,4.9,3.6,8.3,8.2,8.1c4.3-0.2,7.7-3.9,7.4-8.6
			c-0.1-2.8-0.5-5.7-1.3-8.4c-3.4-11.8-11-19.9-22.6-24c-2.4-0.9-3.7-2-3.4-4.7c0.2-1.6,0.1-3.3,0-4.9c-0.1-4.6-3.5-8-7.8-8
			c-4.2,0-7.6,3.4-7.8,7.8c-0.1,1.6-0.2,3.3,0,4.9c0.3,2.8-1,4-3.5,4.9c-22.3,7.4-31.1,34.7-17.2,53.7c7.1,9.7,16.9,14.4,28.9,14.7
			c11,0.2,19.4,9.2,19.1,20.2c-0.3,10.5-9.3,19-20.1,18.8c-10.3-0.2-18.5-8.5-19-19.2c-0.2-4.8-3.5-8.2-7.9-8.1
			c-4.5,0.1-7.9,3.8-7.7,8.6c0.1,2.8,0.5,5.7,1.2,8.4c3.4,11.9,11.1,20,22.9,24.1c2.2,0.8,3.4,1.9,3.2,4.4c-0.2,1.7-0.1,3.4,0,5.1
			c0.1,4.6,3.5,8,7.8,8c4.2,0,7.6-3.4,7.8-7.8c0.1-1.5,0-2.9,0-4.4c0-4,0-4,3.8-5.4c17.1-6.1,26.7-23.7,22.6-41.4
			c-3.6-15.4-17.5-26.6-33.6-26.9C114,117,105.4,108.7,105.5,96.4z"/>
	</g>
	<path class="st1" d="M105.5,96.4c0,12.2,8.6,20.6,20.1,20.8c16.1,0.3,30,11.5,33.6,26.9c4.1,17.7-5.5,35.3-22.6,41.4
		c-3.8,1.3-3.7,1.3-3.8,5.4c0,1.5,0,2.9,0,4.4c-0.2,4.4-3.6,7.8-7.8,7.8c-4.4,0-7.7-3.4-7.8-8c0-1.7-0.1-3.4,0-5.1
		c0.2-2.5-1-3.6-3.2-4.4c-11.7-4.1-19.4-12.1-22.9-24.1c-0.8-2.7-1.1-5.6-1.2-8.4c-0.2-4.9,3.2-8.6,7.7-8.6c4.4-0.1,7.7,3.3,7.9,8.1
		c0.5,10.7,8.6,18.9,19,19.2c10.7,0.2,19.8-8.2,20.1-18.8c0.3-11-8.1-20-19.1-20.2c-12-0.2-21.8-5-28.9-14.7
		c-13.9-19-5.1-46.3,17.2-53.7c2.6-0.9,3.9-2.1,3.5-4.9c-0.2-1.6-0.1-3.3,0-4.9c0.2-4.4,3.6-7.8,7.8-7.8c4.4,0,7.7,3.4,7.8,8
		c0,1.6,0.2,3.3,0,4.9c-0.3,2.7,1,3.8,3.4,4.7c11.6,4.1,19.2,12.1,22.6,24c0.8,2.7,1.1,5.6,1.3,8.4c0.2,4.8-3.1,8.4-7.4,8.6
		c-4.5,0.2-7.9-3.2-8.2-8.1c-0.4-8-4.1-14-11.4-17.3c-7.1-3.3-14-2.3-20.2,2.4C107.9,86.3,105.6,91.5,105.5,96.4z"/>
</g>
</svg>
