<?xml version="1.0" encoding="utf-8"?>
<!-- Generator: Adobe Illustrator 27.1.1, SVG Export Plug-In . SVG Version: 6.00 Build 0)  -->
<svg version="1.1" id="Capa_1" xmlns="http://www.w3.org/2000/svg" xmlns:xlink="http://www.w3.org/1999/xlink" x="0px" y="0px"
	 viewBox="0 0 512 512" style="enable-background:new 0 0 512 512;" xml:space="preserve">
<style type="text/css">
	.st0{fill:#0086FF;}
</style>
<g>
	<path class="st0" d="M506.6,230.4L451,174.8V55c0-30.3-24.7-55-55-55H116C85.7,0,61,24.7,61,55v119.8c-0.4,0.4-55.6,55.6-55.6,55.6
		C2.6,233.2,1,237.1,1,241v216c0,30.3,24.7,55,55,55h400c30.3,0,55-24.7,55-55V241C511,236.8,509.2,232.9,506.6,230.4z M471.4,237.6
		L451,249.1v-31.9L471.4,237.6z M116,30h280c13.8,0,25,11.2,25,25v211l-164.8,92.7L91,265.9C91,260,91,61.3,91,55
		C91,41.2,102.2,30,116,30z M61,249l-20.4-11.5L61,217.2V249z M481,457c0,13.8-11.2,25-25,25H56c-13.8,0-25-11.2-25-25V266.6
		c10.9,6.1,208.9,117.2,217.9,122.3c4.6,2.6,10.1,2.6,14.7,0L481,266.6V457z"/>
</g>
</svg>
