<?xml version="1.0" encoding="utf-8"?>
<!-- Generator: Adobe Illustrator 27.0.1, SVG Export Plug-In . SVG Version: 6.00 Build 0)  -->
<svg version="1.1" id="Capa_1" xmlns="http://www.w3.org/2000/svg" xmlns:xlink="http://www.w3.org/1999/xlink" x="0px" y="0px"
	 viewBox="0 0 250 177.2" style="enable-background:new 0 0 250 177.2;" xml:space="preserve">
<style type="text/css">
	.st0{fill:#0086FF;}
	.st1{fill:#C80000;}
	.st2{fill:#FFFFFF;}
</style>
<g>
	<g>
		<g>
			<g>
				<path class="st0" d="M231.4,32.4H57.2c-10.2,0-18.6,8.3-18.6,18.6v107.6c0,10.2,8.3,18.6,18.6,18.6h174.2
					c10.2,0,18.6-8.3,18.6-18.6V50.9C250,40.7,241.7,32.4,231.4,32.4z M229,44.7l-2.5,2.1l-74.8,62.3c-4.3,3.6-10.5,3.6-14.7,0
					L62.1,46.8l-2.5-2.1H229z M51,53.7l61,50.8L51,145V53.7z M231.4,164.8H57.2c-3,0-5.5-2.1-6.1-5l70.8-47.1l7.1,5.9
					c4.4,3.7,9.9,5.5,15.3,5.5s10.9-1.8,15.3-5.5l7.1-5.9l70.8,47.1C236.9,162.6,234.4,164.8,231.4,164.8z M237.6,145l-61-40.6
					l61-50.8V145z"/>
			</g>
		</g>
	</g>
	<g>
		<circle class="st1" cx="42.3" cy="42.3" r="42.3"/>
		<g>
			<path class="st2" d="M45.6,63.5c0.9,0.9,1.3,2.1,1.3,3.5c0,1.4-0.4,2.6-1.3,3.5c-0.9,0.9-2,1.4-3.3,1.4c-1.3,0-2.4-0.5-3.3-1.4
				c-0.9-0.9-1.4-2.1-1.4-3.5c0-1.4,0.5-2.6,1.4-3.5c0.9-0.9,2-1.4,3.3-1.4C43.6,62.1,44.7,62.6,45.6,63.5z M38.5,12.7h7.6v14.5
				l-1.3,25.7h-5.2l-1.2-25.7V12.7z"/>
		</g>
	</g>
</g>
</svg>
