<?xml version="1.0" encoding="utf-8"?>
<!-- Generator: Adobe Illustrator 27.0.1, SVG Export Plug-In . SVG Version: 6.00 Build 0)  -->
<svg version="1.1" id="Capa_1" xmlns="http://www.w3.org/2000/svg" xmlns:xlink="http://www.w3.org/1999/xlink" x="0px" y="0px"
	 viewBox="0 0 250 250" style="enable-background:new 0 0 250 250;" xml:space="preserve">
<style type="text/css">
	.st0{fill:#929496;}
	.st1{fill:#FFFFFF;}
</style>
<g>
	<path class="st0" d="M130.9,250c-3.7,0-7.5,0-11.2,0c-0.9-0.1-1.8-0.3-2.6-0.4c-7.7-1.2-15.6-1.7-23.1-3.7
		c-28.6-7.4-52.1-23-69.5-47C2.7,169-4.6,135.6,2.8,99.3C9,69,24.8,44.4,49.3,25.7c26.1-19.9,55.8-28.2,88.4-25
		c26.6,2.6,50,13,70,30.8c21.6,19.3,35.1,43.2,40.3,71.8c0.9,4.8,1.3,9.6,2,14.4c0,5,0,10.1,0,15.1c-0.1,0.6-0.3,1.2-0.4,1.8
		c-0.8,5.4-1.2,10.8-2.3,16.1c-6.6,30.1-22.1,54.7-46.6,73.5c-16.5,12.7-35.1,20.6-55.6,24C140.4,249,135.6,249.4,130.9,250z
		 M202,211.3c32.4-28,48.4-76,33.2-122.1C219.4,41,174.9,8.9,124.9,9.1C74.2,9.3,30.2,41.4,14.6,90c-14.7,45.9,1.4,93.4,33.1,121
		c1.7-1,3.5-2.1,5.2-3c10.8-5.9,21.7-11.9,32.5-17.7c4.6-2.5,7-6.1,6.8-11.4c-0.1-3.1,0.1-6.2-0.1-9.3c-0.1-1.4-0.5-2.9-1.2-4
		c-5.3-7.9-9.6-16.2-12.3-25.3c-0.3-1.2-1.1-2.4-1.9-3.3c-2.7-3-4.5-6.4-4.6-10.5c-0.1-6.1-0.3-12.2,0.1-18.3c0.2-2.7,1.7-5.3,2.6-8
		c0.4-1.3,1.1-2.5,1.1-3.8c0.1-7.3,0-14.6,0-22C76,60,84.4,46.9,97.8,41.4c16.8-6.8,34-6.9,51.1-1.3c15.7,5.1,25.1,18.5,25.1,34.1
		c0,7.3-0.1,14.6,0,22c0,1.4,0.8,2.8,1.3,4.2c0.9,2.6,2.3,5.1,2.5,7.8c0.4,6.1,0.3,12.2,0.1,18.3c-0.2,5.6-3,9.8-7.5,13
		c-1.1,0.8-2,2-2.7,3.2c-2.7,5.4-4.5,11.4-8.1,16c-4.9,6.5-6.7,13.2-5.8,21c0,0.2,0,0.5,0,0.7c0,4.3,1.9,7.6,5.7,9.5
		C173.6,197.1,187.8,204.2,202,211.3z"/>
	<path class="st1" d="M202,211.3c-14.2-7.1-28.4-14.2-42.5-21.3c-3.8-1.9-5.7-5.2-5.7-9.5c0-0.2,0-0.5,0-0.7
		c-0.9-7.8,0.8-14.5,5.8-21c3.6-4.7,5.4-10.7,8.1-16c0.6-1.2,1.6-2.4,2.7-3.2c4.5-3.2,7.4-7.4,7.5-13c0.2-6.1,0.3-12.2-0.1-18.3
		c-0.2-2.6-1.6-5.2-2.5-7.8c-0.5-1.4-1.2-2.8-1.3-4.2c-0.1-7.3,0-14.6,0-22c0.1-15.6-9.4-29-25.1-34.1c-17.1-5.5-34.3-5.5-51.1,1.3
		C84.4,46.9,76,60,76.1,74.4c0.1,7.3,0.1,14.6,0,22c0,1.3-0.7,2.5-1.1,3.8c-0.9,2.7-2.4,5.3-2.6,8c-0.4,6.1-0.2,12.2-0.1,18.3
		c0.1,4.1,1.8,7.5,4.6,10.5c0.8,0.9,1.5,2.1,1.9,3.3c2.7,9.1,6.9,17.5,12.3,25.3c0.8,1.1,1.2,2.6,1.2,4c0.2,3.1,0,6.2,0.1,9.3
		c0.2,5.3-2.2,8.9-6.8,11.4C74.6,196.1,63.8,202,53,208c-1.8,1-3.5,2-5.2,3C16,183.4-0.1,135.9,14.6,90
		C30.2,41.4,74.2,9.3,124.9,9.1c50.1-0.2,94.5,31.8,110.3,80.1C250.3,135.3,234.4,183.3,202,211.3z"/>
</g>
</svg>
