<?xml version="1.0" encoding="utf-8"?>
<!-- Generator: Adobe Illustrator 27.0.1, SVG Export Plug-In . SVG Version: 6.00 Build 0)  -->
<svg version="1.1" id="Capa_1" xmlns="http://www.w3.org/2000/svg" xmlns:xlink="http://www.w3.org/1999/xlink" x="0px" y="0px"
	 viewBox="0 0 250 224.7" style="enable-background:new 0 0 250 224.7;" xml:space="preserve">
<style type="text/css">
	.st0{fill:#3D6AC2;}
	.st1{fill:#C0D6FA;}
</style>
<g>
	<path class="st0" d="M69.4,89.6l28.9-57.7l41.2,111.2l17.8-53.5h91.2c4.5-24.2-0.8-48.7-19.7-67.5h0c-28.5-28.5-74.1-29.5-103.8-3
		C95.2-7.3,49.7-6.4,21.2,22.1h0C2.3,41-3,65.4,1.5,89.6H69.4z"/>
	<path class="st1" d="M164.2,104.4L140,177.2L97,61.1l-21.6,43.3H5.4c2.6,7.4,6,14.6,10.1,21.6C38.3,164.1,125,224.7,125,224.7
		s86.7-60.7,109.5-98.7c4.2-6.9,7.6-14.2,10.1-21.6H164.2z"/>
</g>
</svg>
