<?xml version="1.0" encoding="utf-8"?>
<!-- Generator: Adobe Illustrator 27.0.1, SVG Export Plug-In . SVG Version: 6.00 Build 0)  -->
<svg version="1.1" id="Capa_1" xmlns="http://www.w3.org/2000/svg" xmlns:xlink="http://www.w3.org/1999/xlink" x="0px" y="0px"
	 viewBox="0 0 250 166.6" style="enable-background:new 0 0 250 166.6;" xml:space="preserve">
<style type="text/css">
	.st0{fill:#3D6AC2;}
	.st1{fill:#C0D6FA;}
</style>
<g>
	<g>
		<path class="st0" d="M36.5,166.6c-5.7,0-11.4,0-17.1-0.1c-10-0.1-15.1-5.1-15.2-14.9c-0.1-22.6-0.1-45.1,0-67.7
			c0-2.6,0.7-5.3,2.3-8.3c1.8-3.6,3.7-7.1,5.6-10.7l0.2-0.5c-1.3-0.5-2.7-1-4-1.6c-2.8-1.2-6.2-3.1-7.7-7C-1,51.6,1,47.3,1.8,45.5
			c0.5-1,1-2,1.5-2.9l0.6-1.1c3.2-6.1,8.5-9.5,15.3-9.8c3.1-0.1,6.3-0.4,9.4-0.6c3.5-0.2,7.1-0.5,10.6-0.6
			c7-8.1,13.8-15.9,20.7-23.6C64,2.2,69.7,0,76.4,0c32.9,0.2,65.9,0.1,98.8,0c0,0,0.1,0,0.1,0c5.4,0,9.9,1.8,13.1,5.5
			c7.5,8.3,14.9,16.6,22.3,25c4.5,0.2,8.9,0.5,13.2,0.8l8.2,0.6c5.7,0.4,10.3,3.3,13.3,8.5c1.1,1.9,2.2,3.9,3.1,5.9
			c1.1,2.4,2.3,5.9,0.9,9.7c-1.5,3.8-4.7,5.5-7,6.5c-1.7,0.7-3.3,1.4-5.1,2c1.6,3.2,3.2,6.5,4.6,9.7c1.3,3,2.7,6.6,2.7,10.4
			c0.2,22.4,0.2,44.8,0.1,67.1c0,9.7-5.1,14.7-15,14.7c-9.9,0-19.7,0-29.6,0c-9.6-0.1-15-5.4-15-15.1l0-5.2H63.6l0,5.2
			c-0.1,9.7-5.4,15-15,15.1C44.6,166.6,40.5,166.6,36.5,166.6z M18.4,152.3c0.3,0,0.6,0,1.1,0c9.7,0.1,19.4,0.1,29.1,0
			c0.3,0,0.6,0,0.8,0c0-0.3,0-0.6,0-0.9l0-8.4l0-10.9h149.9l0,19.3c0,0.4,0,0.7,0,0.9c0.2,0,0.5,0,0.9,0c9.8,0.1,19.6,0.1,29.5,0
			c0.3,0,0.6,0,0.8,0c0-0.2,0-0.3,0-0.5c0.1-22.3,0.1-44.7-0.1-67c0-1.4-1.1-3.8-1.5-4.7c-1.7-3.9-3.6-7.6-5.5-11.5l-5.8-11.8
			l11.4-4.3c2-0.7,3.8-1.4,5.7-2.1c-0.5-1-1.1-2-1.6-2.9c-0.7-1.3-1.3-1.3-1.8-1.4l-8.3-0.6c-4.4-0.3-8.9-0.6-13.3-0.8
			c-3.9-0.2-6.9-1.7-9.5-4.7c-7.3-8.4-14.7-16.7-22.2-24.9c-0.3-0.3-0.7-0.8-2.6-0.8c0,0,0,0,0,0c-33,0.1-66,0.2-98.9,0
			c-3.1,0-4.7,0.8-5.8,2.1C63.6,24,56.7,31.8,50,39.7c-1.7,2-4.6,4.7-9.9,5c-3.5,0.1-7.1,0.4-10.6,0.6c-3.2,0.2-6.4,0.4-9.7,0.6
			c-1.8,0.1-2.6,0.6-3.4,2.2l-0.7,1.2c-0.2,0.4-0.4,0.8-0.6,1.1c1.9,0.8,3.9,1.5,5.8,2.2l10.9,4l-3.7,7.8c-0.4,0.8-0.7,1.6-1.1,2.3
			l-2.6,4.9c-1.9,3.4-3.7,6.9-5.5,10.4c-0.7,1.4-0.7,2-0.7,2c-0.1,22.5-0.1,45,0,67.5C18.3,151.8,18.4,152.1,18.4,152.3z"/>
	</g>
	<path class="st1" d="M49.3,60.4c0.4-1.8,0.4-3.3,1-4.6c4.8-11.7,12.2-21.6,21.8-29.7c1.7-1.5,4.5-2.4,6.8-2.4
		c30.8-0.2,61.5-0.1,92.3,0c2.1,0,4.6,0.9,6.2,2.2c9.3,7.9,16.9,17.1,21.9,28.3c2.5,5.6,1.9,6.4-4,6.4c-47.6,0-95.1,0-142.7,0
		C51.6,60.6,50.7,60.5,49.3,60.4z"/>
	<path class="st1" d="M178.4,102.9c0-4-0.1-7.4,0-10.8c0.1-2.7,2.1-4.3,4.4-5.1c2.6-1,5.3-1.8,8-2.1c10.2-1.2,20.5-2.1,30.7-3.2
		c0.6-0.1,1.3,0,2.4,0c0,4.5,0.3,9-0.1,13.3c-0.4,3.5-3,5.7-6.4,5.9C204.5,101.7,191.7,102.3,178.4,102.9z"/>
	<path class="st1" d="M71.5,102.8c-10.7-0.5-21-0.9-31.3-1.4c-1.8-0.1-3.6-0.2-5.4-0.3c-6-0.2-8.9-2.9-9.2-9c-0.2-3.4,0-6.8,0-10.7
		c4.3,0.3,7.9,0.5,11.4,0.9c8,0.9,15.9,1.7,23.9,2.7c2,0.2,3.9,0.8,5.7,1.6c3.3,1.3,5.3,3.6,4.9,7.5C71.3,96.9,71.5,99.7,71.5,102.8
		z"/>
</g>
</svg>
