<?xml version="1.0" encoding="utf-8"?>
<!-- Generator: Adobe Illustrator 27.0.1, SVG Export Plug-In . SVG Version: 6.00 Build 0)  -->
<svg version="1.1" id="Capa_1" xmlns="http://www.w3.org/2000/svg" xmlns:xlink="http://www.w3.org/1999/xlink" x="0px" y="0px"
	 viewBox="0 0 250 211.6" style="enable-background:new 0 0 250 211.6;" xml:space="preserve">
<style type="text/css">
	.st0{fill:#3D6AC2;}
	.st1{fill:#C0D6FA;}
</style>
<g>
	<path class="st0" d="M202.8,27.5h-30.2C169.4,11.8,157.2,0,142.7,0h-31.9C96.2,0,84.1,11.8,80.9,27.5H47.2C21.2,27.5,0,48.7,0,74.8
		v89.5c0,26.1,21.2,47.2,47.2,47.2h155.5c26.1,0,47.2-21.2,47.2-47.2V74.8C250,48.7,228.8,27.5,202.8,27.5z M110.8,13.4h31.9
		c7.3,0,13.5,5.9,16.1,14.1H94.7C97.2,19.3,103.5,13.4,110.8,13.4z M233.2,164.3c0,16.8-13.7,30.5-30.5,30.5H47.2
		c-16.8,0-30.5-13.7-30.5-30.5V74.8c0-16.8,13.7-30.5,30.5-30.5h155.5c16.8,0,30.5,13.7,30.5,30.5V164.3z"/>
	<g>
		
			<ellipse transform="matrix(0.7071 -0.7071 0.7071 0.7071 -48.4413 122.1802)" class="st1" cx="123.3" cy="119.6" rx="60.8" ry="60.8"/>
	</g>
	<polygon class="st0" points="157.5,110.2 132.8,110.2 132.8,85.5 113.8,85.5 113.8,110.2 89.2,110.2 89.2,129.2 113.8,129.2 
		113.8,153.9 132.8,153.9 132.8,129.2 157.5,129.2 	"/>
</g>
</svg>
