<?xml version="1.0" encoding="utf-8"?>
<!-- Generator: Adobe Illustrator 27.0.1, SVG Export Plug-In . SVG Version: 6.00 Build 0)  -->
<svg version="1.1" id="Capa_1" xmlns="http://www.w3.org/2000/svg" xmlns:xlink="http://www.w3.org/1999/xlink" x="0px" y="0px"
	 viewBox="0 0 250 250" style="enable-background:new 0 0 250 250;" xml:space="preserve">
<style type="text/css">
	.st0{fill:#4E99E8;}
	.st1{fill:#FFFFFF;}
</style>
<g>
	<circle class="st0" cx="125" cy="125" r="125"/>
	<path class="st1" d="M194,82.2c-4.3,2-9.1,3.1-13.8,3.9c2.2-0.4,5.5-4.4,6.8-6c2-2.5,3.6-5.3,4.6-8.3c0.1-0.2,0.2-0.5,0-0.7
		c-0.3-0.1-0.5-0.1-0.7,0.1c-5.2,2.8-10.6,4.8-16.4,6.3c-0.5,0.1-0.8,0-1.1-0.3c-0.5-0.5-0.9-1-1.4-1.5c-2.4-2.1-5-3.7-7.9-4.8
		c-3.8-1.6-8-2.2-12.1-2c-4,0.3-8,1.4-11.5,3.3c-3.6,1.9-6.7,4.5-9.3,7.6c-2.6,3.2-4.6,7.1-5.6,11.1c-1,3.9-0.9,7.8-0.3,11.7
		c0.1,0.7,0,0.7-0.6,0.7c-22.5-3.3-41.1-11.4-56.2-28.6c-0.6-0.7-1-0.7-1.5,0.1c-6.6,9.9-3.4,25.8,4.9,33.7c1.1,1,2.2,2.1,3.5,3
		c-0.4,0.1-5.9-0.5-10.8-3c-0.7-0.4-1-0.2-1,0.6c-0.1,1.1,0,2.1,0.2,3.2c1.3,10,8.2,19.3,17.8,23c1.1,0.5,2.4,0.9,3.6,1.1
		c-2.2,0.5-4.4,0.8-10.6,0.3c-0.8-0.1-1.1,0.2-0.8,1c4.7,12.7,14.8,16.5,22.3,18.7c1,0.2,2,0.2,3,0.4c-0.1,0.1-0.1,0.1-0.2,0.2
		c-2.5,3.8-11.2,6.7-15.3,8.1c-7.4,2.6-15.4,3.7-23.2,3c-1.3-0.2-1.5-0.2-1.8,0c-0.3,0.2,0,0.5,0.4,0.8c1.6,1,3.2,2,4.8,2.9
		c4.9,2.6,10.1,4.7,15.5,6.2c27.8,7.7,59.2,2,80.1-18.7c16.4-16.3,22.2-38.8,22.2-61.3c0-0.9,1-1.4,1.7-1.8c4.3-3.2,7.7-7,10.9-11.3
		c0.7-1,0.7-1.8,0.7-2.2c0-0.1,0-0.1,0-0.1C194.6,81.8,194.6,81.9,194,82.2z"/>
</g>
</svg>
