<?xml version="1.0" encoding="utf-8"?>
<!-- Generator: Adobe Illustrator 27.0.1, SVG Export Plug-In . SVG Version: 6.00 Build 0)  -->
<svg version="1.1" id="Capa_1" xmlns="http://www.w3.org/2000/svg" xmlns:xlink="http://www.w3.org/1999/xlink" x="0px" y="0px"
	 viewBox="0 0 250 159.3" style="enable-background:new 0 0 250 159.3;" xml:space="preserve">
<style type="text/css">
	.st0{fill:#3D6AC2;}
</style>
<g>
	<path class="st0" d="M0,78.2c1.2-2,2.2-4.2,3.6-6c17.6-22.1,38-41,62.6-55.1C82.4,7.7,99.7,1.5,118.4,0.2c17.2-1.2,33.6,2.2,49.4,9
		c22.6,9.7,41.9,24.1,59.1,41.5c7.1,7.2,13.7,15,20.3,22.8c3.7,4.4,3.6,8,0,12.5c-17.8,22.5-38.4,41.8-63.3,56.2
		c-19.6,11.3-40.4,18.1-63.4,17.1c-15.7-0.7-30.6-4.9-44.7-11.9c-29.6-14.5-53.2-36.1-73.5-61.7c-1-1.3-1.6-3-2.4-4.5
		C0,80.1,0,79.2,0,78.2z M231.6,79.8c-5.1-5.5-9.6-10.6-14.4-15.5C201.1,48,183.3,34,162.1,24.8c-10.6-4.6-21.6-7.6-33.2-8.1
		c-17.7-0.8-34,4.1-49.6,12.1C62,37.7,47,49.9,33.3,63.7c-5,5.1-9.7,10.4-14.8,16C23.4,85,28,90.2,32.8,95.1
		c16.1,16.3,33.8,30.2,54.9,39.4c10.6,4.6,21.6,7.6,33.2,8.2c17.7,0.9,34.1-4.1,49.6-12.1c15.1-7.8,28.5-17.9,40.7-29.6
		C218.1,94.3,224.6,87.1,231.6,79.8z"/>
	<path class="st0" d="M174.4,79.7c0,27.3-22.3,49.5-49.5,49.3c-27.3-0.2-49.3-22.2-49.2-49.4c0-27.3,22.3-49.5,49.5-49.3
		C152.4,30.4,174.4,52.5,174.4,79.7z M157.9,79.6c-0.1-18.2-14.8-32.9-32.9-32.9c-18.1,0-32.9,14.7-33,32.9
		c-0.1,18.1,14.9,33.2,33.1,33C143.3,112.5,157.9,97.7,157.9,79.6z"/>
</g>
</svg>
