<?xml version="1.0" encoding="utf-8"?>
<!-- Generator: Adobe Illustrator 27.0.1, SVG Export Plug-In . SVG Version: 6.00 Build 0)  -->
<svg version="1.1" id="Capa_1" xmlns="http://www.w3.org/2000/svg" xmlns:xlink="http://www.w3.org/1999/xlink" x="0px" y="0px"
	 viewBox="0 0 250 250" style="enable-background:new 0 0 250 250;" xml:space="preserve">
<style type="text/css">
	.st0{fill:#6BCE72;}
	.st1{fill:#FFFFFF;}
	.st2{fill-rule:evenodd;clip-rule:evenodd;fill:#FFFFFF;}
</style>
<g>
	<path class="st0" d="M250,125c0,69-56,125-125,125C56,250,0,194,0,125C0,56,56,0,125,0C194,0,250,56,250,125z"/>
	<path class="st1" d="M57.5,195.7l10.4-38.9c-5.9-10.7-9-22.6-9-34.7c0-39.6,32.2-71.8,71.8-71.8c39.6,0,71.8,32.2,71.8,71.8
		c0,39.6-32.2,71.8-71.8,71.8c-11.9,0-23.6-3-34.1-8.7L57.5,195.7z M98.5,170.7l2.5,1.5c9,5.4,19.3,8.2,29.7,8.2
		c32.1,0,58.2-26.1,58.2-58.2s-26.1-58.2-58.2-58.2c-32.1,0-58.2,26.1-58.2,58.2c0,10.6,2.9,21,8.5,30.2l1.5,2.5l-5.8,21.7
		L98.5,170.7z"/>
	<path class="st2" d="M157.4,132.2c-3-1.8-6.8-3.8-10.3-2.3c-2.7,1.1-4.4,5.3-6.1,7.4c-0.9,1.1-1.9,1.3-3.3,0.7
		c-10-4-17.7-10.7-23.2-19.9c-0.9-1.4-0.8-2.6,0.4-3.9c1.7-2,3.8-4.2,4.2-6.8c0.5-2.7-0.8-5.8-1.9-8.1c-1.4-3-3-7.3-6-9
		c-2.8-1.6-6.4-0.7-8.9,1.3c-4.3,3.5-6.3,8.9-6.3,14.3c0,1.5,0.2,3.1,0.6,4.5c0.9,3.6,2.5,6.9,4.4,10.1c1.4,2.4,2.9,4.7,4.6,6.9
		c5.4,7.3,12,13.6,19.8,18.3c3.9,2.4,8,4.4,12.3,5.8c4.8,1.6,9.1,3.3,14.3,2.3c5.5-1,10.8-4.4,13-9.7c0.6-1.6,1-3.3,0.6-4.9
		C164.7,135.8,160.1,133.8,157.4,132.2z"/>
</g>
</svg>
